<svg xmlns="http://www.w3.org/2000/svg" viewBox="0 0 59.084 59.084">
  <path d="M16.974 26.493l-4.317 1.168c-.533.144-.848.693-.704 1.226.121.446.524.739.965.739.086 0 .174-.011.262-.035l4.317-1.168c.533-.144.848-.693.704-1.226-.144-.534-.695-.855-1.227-.704z"/>
  <path d="M29.06 35.165l-3-1c-.525-.177-1.09.108-1.265.632-.175.524.108 1.091.632 1.265l3 1c.105.035.212.052.316.052.419 0 .809-.265.949-.684.175-.524-.108-1.091-.632-1.265z"/>
  <path d="M48.077 23.943c-.552 0-1 .447-1 1v4c0 .553.448 1 1 1s1-.447 1-1v-4c0-.553-.448-1-1-1z"/>
  <path d="M23.74 13.22c.197.22.47.332.744.332.238 0 .477-.085.668-.256.411-.369.444-1.002.075-1.412l-2.114-2.353c-.369-.41-1.001-.444-1.412-.076-.411.369-.444 1.002-.075 1.412l2.114 2.353z"/>
  <path d="M46.994 18.49l3 1c.105.035.212.052.316.052.419 0 .809-.265.949-.684.175-.524-.108-1.091-.632-1.265l-3-1c-.525-.178-1.09.108-1.265.632-.175.525.108 1.092.632 1.265z"/>
  <path d="M36.512 30.891c-.563-.041-1.025.387-1.058.938l-.084 1.411c-.033.552.387 1.025.938 1.058.021.001.041.002.061.002.525 0 .966-.409.997-.94l.084-1.411c.033-.552-.387-1.026-.938-1.058z"/>
  <path d="M43.537 36.321c.195.195.451.293.707.293s.512-.098.707-.293c.391-.391.391-1.023 0-1.414l-1-1c-.391-.391-1.023-.391-1.414 0s-.391 1.023 0 1.414l1 1z"/>
  <path d="M15.784 34.406c-.391-.391-1.023-.391-1.414 0s-.391 1.023 0 1.414l1 1c.195.195.451.293.707.293s.512-.098.707-.293c.391-.391.391-1.023 0-1.414l-1-1z"/>
  <path d="M44.273 14.582c.015 0 .03 0 .045-.001.552-.024.979-.491.955-1.043l-.062-1.413c-.024-.553-.501-.983-1.043-.955-.552.024-.979.491-.955 1.043l.062 1.413c.024.537.467.956.998.956z"/>
  <path d="M13.39 19.797c.081 0 .162-.01.244-.03.536-.134.861-.677.728-1.212l-1-4c-.134-.537-.679-.861-1.213-.728-.536.134-.861.677-.728 1.212l1 4c.113.455.521.758.969.758z"/>
  <path d="M8.284 22.635c-.391-.391-1.023-.391-1.414 0s-.391 1.023 0 1.414l1 1c.195.195.451.293.707.293s.512-.098.707-.293c.391-.391.391-1.023 0-1.414l-1-1z"/>
  <path d="M36.703 14.082c.195.195.451.293.707.293s.512-.098.707-.293c.391-.391.391-1.023 0-1.414l-1-1c-.391-.391-1.023-.391-1.414 0s-.391 1.023 0 1.414l1 1z"/>
  <path d="M59.079 27.424l-.002-2.383c0-.13-.029-.254-.081-.368-.003-.122-.016-.242-.022-.364-.008-.174-.017-.349-.031-.522-.015-.18-.036-.359-.058-.538-.021-.174-.041-.348-.068-.52-.027-.176-.061-.35-.094-.525-.033-.174-.066-.347-.105-.519-.039-.171-.084-.34-.128-.51-.045-.173-.09-.345-.141-.516-.05-.167-.106-.332-.162-.497-.057-.171-.114-.342-.177-.511-.061-.162-.127-.323-.193-.483-.069-.169-.138-.338-.213-.505-.071-.158-.148-.313-.224-.47-.081-.167-.161-.333-.248-.498-.081-.153-.167-.304-.252-.455-.093-.164-.184-.329-.283-.491-.09-.149-.186-.295-.281-.442-.104-.161-.206-.321-.315-.48-.1-.145-.206-.287-.31-.43-.114-.156-.227-.313-.347-.468-.108-.14-.222-.276-.335-.414-.125-.154-.25-.307-.38-.458-.116-.133-.237-.264-.357-.396-.137-.151-.273-.302-.415-.449-.124-.129-.253-.254-.381-.381-.146-.145-.291-.291-.442-.433-.133-.125-.272-.247-.409-.37-.155-.139-.308-.279-.468-.416-.141-.12-.288-.237-.433-.355-.164-.134-.326-.269-.495-.4-.149-.115-.303-.227-.455-.34-.173-.128-.344-.257-.521-.382-.157-.111-.319-.218-.48-.326-.18-.122-.359-.245-.543-.363-.163-.105-.332-.205-.499-.308-.189-.116-.377-.234-.57-.346-.171-.1-.347-.195-.522-.292-.195-.109-.389-.219-.588-.325-.181-.096-.367-.186-.551-.279-.2-.101-.398-.203-.602-.301-.188-.09-.381-.175-.573-.262-.206-.094-.41-.189-.619-.279-.198-.085-.4-.164-.601-.246-.209-.085-.416-.173-.629-.255-.206-.079-.416-.152-.624-.228-.214-.078-.426-.158-.642-.232-.216-.073-.436-.141-.654-.211-.215-.069-.427-.14-.644-.205-.224-.067-.453-.128-.68-.191-.218-.061-.434-.125-.655-.182-.232-.06-.468-.113-.703-.17-.22-.053-.437-.108-.659-.157-.246-.054-.496-.101-.744-.151-.216-.043-.43-.09-.648-.13-.257-.047-.519-.086-.778-.128-.214-.035-.425-.073-.64-.104-.269-.039-.543-.07-.815-.104-.21-.026-.418-.056-.629-.079-.294-.032-.593-.055-.89-.081-.192-.017-.383-.038-.576-.052-.346-.025-.696-.041-1.046-.057-.148-.007-.294-.018-.442-.024-.5-.018-1.003-.027-1.509-.027-16.266 0-29.5 9.421-29.5 21 0 .833.077 6.5.077 6.5 0 .037.009.072.011.108l.005 2.829c0 11.53 12.917 20.563 29.408 20.563 16.313 0 29.584-9.406 29.584-20.969l-.005-5.949c.003-.24.004-.47.001-.698zM57 25.042c0 .184.012.459.028.803.018.401.044.966.051 1.613v.591c-.018 1.924-.243 4.307-1.253 5.407-.348.379-.758.565-1.289.587-.117-.01-.237-.063-.298-.122-.104-.1-.163-.237-.163-.379 0-.553-.448-1-1-1s-1 .447-1 1v3c0 .271-.229.5-.5.5s-.5-.229-.5-.5c0-.553-.448-1-1-1s-1 .447-1 1v4c0 .271-.229.5-.5.5s-.5-.229-.5-.5v-1c0-.553-.448-1-1-1s-1 .447-1 1c0 .271-.229.5-.5.5s-.5-.229-.5-.5c0-.553-.448-1-1-1s-1 .447-1 1v5c0 .271-.229.5-.5.5s-.5-.229-.5-.5v-3.5c0-.553-.448-1-1-1s-1 .447-1 1c0 .552-.449 1-1 1s-1-.448-1-1c0-.553-.448-1-1-1s-1 .447-1 1v3.5c0 .271-.229.5-.5.5s-.5-.229-.5-.5v-1.5c0-.553-.448-1-1-1s-1 .447-1 1c0 .552-.449 1-1 1s-1-.448-1-1c0-.553-.448-1-1-1s-1 .447-1 1v4c0 .552-.449 1-1 1s-1-.448-1-1v-3.5c0-.553-.448-1-1-1s-1 .447-1 1c0 .271-.229.5-.5.5s-.5-.229-.5-.5c0-.553-.448-1-1-1s-1 .447-1 1v1.5c0 .552-.449 1-1 1s-1-.448-1-1v-3.5c0-.553-.448-1-1-1s-1 .447-1 1c0 .271-.229.5-.5.5s-.5-.229-.5-.5c0-.553-.448-1-1-1s-1 .447-1 1v2c0 .271-.229.5-.5.5s-.5-.229-.5-.5v-5c0-.553-.448-1-1-1s-1 .447-1 1c0 .271-.229.5-.5.5s-.5-.229-.5-.5c0-.553-.448-1-1-1s-1 .447-1 1v2c0 .271-.229.5-.5.5s-.5-.229-.5-.5v-4c0-.553-.448-1-1-1s-1 .447-1 1c0 .271-.229.5-.5.5s-.5-.229-.5-.5v-4.821c0-.25-.11-.509-.279-.693-.265-.288-.675-.395-1.048-.274-.373.122-.64.451-.683.842-.027.251-.243.447-.49.447-.253 0-.461-.201-.489-.459-.005-2.775-.011-6.541-.011-6.541 0-10.477 12.302-19 27.423-19C44.664 6.042 57 14.566 57 25.042zm-27.5 28c-15.369 0-27.408-8.153-27.408-18.563 0 0 0-.186-.001-.487.157.031.319.049.485.049.171 0 .338-.018.5-.051v2.551c0 1.379 1.122 2.5 2.5 2.5.171 0 .338-.018.5-.05v1.55c0 1.379 1.122 2.5 2.5 2.5 1.228 0 2.252-.89 2.461-2.059.335.073.703.075 1.039.009v2.55c0 1.379 1.122 2.5 2.5 2.5 1.228 0 2.252-.89 2.461-2.059.334.073.703.076 1.039.009v1.05c0 1.654 1.346 3 3 3 1.335 0 2.469-.876 2.857-2.084.363.098.772.108 1.143.034v1.05c0 1.654 1.346 3 3 3s3-1.346 3-3V45.87c.731.258 1.616.207 2.307-.129.425.773 1.249 1.3 2.193 1.3 1.378 0 2.5-1.121 2.5-2.5v-.671c.626.221 1.374.221 2 0v.671c0 1.379 1.122 2.5 2.5 2.5s2.5-1.121 2.5-2.5v-2.55c.456.091.961.05 1.388-.113.444.698 1.225 1.163 2.112 1.163 1.378 0 2.5-1.121 2.5-2.5v-1.55c.162.032.329.05.5.05 1.378 0 2.5-1.121 2.5-2.5V36c.175.034.354.043.54.04.951-.037 1.762-.387 2.433-1.007-.73 10.016-12.808 18.009-27.549 18.009z"/>
  <path d="M19.077 24.042c0 .696.173 1.396.506 2.084.011.028.009.058.023.085 1.442 2.89 5.65 4.831 10.472 4.831 4.822 0 9.03-1.941 10.472-4.831.013-.027.012-.057.023-.085.333-.688.505-1.388.505-2.084 0-3.925-4.832-7-11-7s-11.001 3.075-11.001 7zm2.941 2.182c.024-.009.049-.016.073-.025.532-.197 1.082-.369 1.644-.524.08-.022.158-.047.238-.068.562-.148 1.139-.271 1.726-.376.115-.021.229-.041.345-.06.588-.096 1.185-.174 1.792-.227.099-.009.2-.014.299-.022.64-.049 1.287-.08 1.943-.08.655 0 1.302.032 1.943.08.1.008.2.013.299.022.607.053 1.204.131 1.792.227.115.019.23.039.345.06.586.105 1.163.229 1.725.376.081.021.159.046.239.068.562.155 1.112.328 1.643.524.024.009.049.016.073.025-1.512 1.696-4.622 2.818-8.059 2.818-3.439 0-6.549-1.121-8.06-2.818zm8.059-7.182c4.878 0 9 2.29 9 5 0 .129-.01.257-.031.387-.008-.003-.017-.005-.025-.008-.612-.235-1.247-.44-1.895-.624-.096-.027-.191-.056-.287-.082-.628-.169-1.27-.313-1.925-.433-.117-.021-.234-.041-.351-.061-.661-.112-1.332-.202-2.014-.264-.096-.009-.193-.013-.29-.021-.719-.057-1.445-.093-2.181-.093-.735 0-1.461.036-2.18.093-.097.008-.194.012-.29.021-.682.062-1.352.152-2.013.264-.118.02-.235.04-.353.062-.654.12-1.296.264-1.923.433-.098.026-.194.056-.291.083-.647.183-1.28.387-1.891.622-.009.003-.018.005-.027.009-.021-.13-.031-.258-.031-.387-.002-2.711 4.119-5.001 8.998-5.001z"/>
</svg>
