<svg xmlns="http://www.w3.org/2000/svg" viewBox="0 0 52.308 52.308">
  <path d="M49.575.169c-.458-.307-1.081-.185-1.388.274l-3.584 5.351C40.864 4.198 34.7 3.308 28.664 3.308c-3.968 0-7.775.381-11.098 1.08C16.032 2.263 13.542.872 10.727.872 6.075.872 2.29 4.657 2.29 9.31s3.785 8.438 8.437 8.438c.938 0 1.856-.159 2.74-.465.777 1.09 1.623 2.234 2.507 3.4.086.19.222.366.403.529 3.352 4.385 7.129 8.953 9.446 11.709.612.729 1.435 1.222 2.341 1.425V45.32c-3.2.071-11 .545-11 3.488 0 3.331 9.996 3.5 12 3.5s12-.169 12-3.5c0-2.943-7.8-3.417-11-3.488V34.308c.891-.228 1.693-.732 2.281-1.468 3.533-4.417 6.462-8.232 8.81-11.465.268-.221.443-.464.531-.732 3.893-5.42 6.012-9.064 6.328-10.888.032-.145.051-.293.051-.447 0-.962-.654-1.824-1.782-2.575l3.467-5.176c.306-.459.183-1.08-.275-1.388zm-31.007 6.04c3.029-.584 6.562-.901 10.096-.901 6.781 0 11.901 1.078 14.801 2.186l-2.61 3.897c-2.805.521-6.801.917-12.191.917-3.616 0-6.995-.192-9.863-.561.021-.068.028-.138.047-.206.071-.256.129-.515.175-.776.02-.113.043-.225.058-.339.05-.369.082-.74.082-1.116 0-.274-.015-.546-.041-.818-.015-.166-.044-.328-.07-.492-.016-.099-.026-.199-.046-.298-.04-.207-.093-.41-.148-.612-.014-.051-.025-.104-.04-.155-.065-.221-.141-.436-.223-.648-.01-.025-.017-.052-.027-.078zm22.108 12.538c-.459-.24-1.077-.465-1.897-.662l3.275-4.889c1.006-.213 1.945-.467 2.773-.769-.883 1.539-2.233 3.62-4.151 6.32zm-3.102 1.137c.645.109 1.177.224 1.58.34-.505.162-1.238.331-2.134.488l.554-.828zm-3.198 1.179c-1.497.147-3.24.245-5.212.245-4.623 0-8.631-.555-10.458-1.082 1.745-.456 5.517-.918 10.458-.918 2.411 0 4.505.114 6.196.285l-.984 1.47zm2.254-3.365c-1.832-.242-4.257-.391-7.466-.391-7.182 0-10.57.699-12.109 1.488-.838-1.115-1.635-2.205-2.358-3.234l-.051-.073c-.051-.073-.095-.138-.145-.209-.184-.265-.366-.528-.54-.785-.068-.1-.13-.193-.194-.29-.173-.257-.341-.512-.504-.764-.043-.066-.088-.135-.129-.199-.164-.255-.32-.504-.468-.745.583.2 1.244.384 1.976.554.406.094.83.185 1.282.27l-.01.02 1.34.207.729.112.004-.009c3.072.427 6.738.655 10.676.655 2.147 0 6.574-.079 10.668-.643l-2.701 4.036zm-25.903-1.951c-3.55 0-6.437-2.888-6.437-6.438s2.888-6.438 6.437-6.438c2.346 0 4.397 1.266 5.522 3.146.292.489.516 1.011.67 1.551.009.031.016.062.024.093.06.224.105.451.141.68.009.057.019.114.026.171.033.264.055.529.055.796 0 .325-.034.646-.082.964-.012.079-.026.158-.041.237-.061.316-.137.629-.247.936-.303-.053-.586-.106-.857-.161-.177-.036-.342-.072-.507-.108-.082-.018-.169-.036-.248-.054-.191-.044-.372-.088-.546-.133-.039-.01-.08-.02-.119-.03-.184-.048-.357-.096-.522-.144-.023-.007-.046-.013-.068-.02-.165-.049-.321-.097-.468-.146l-.063-.021c-.138-.046-.268-.092-.39-.138-.034-.013-.066-.025-.098-.038-.099-.038-.193-.075-.281-.112-.071-.03-.139-.06-.203-.089-.039-.018-.079-.035-.116-.053-1.014-.485-1.135-.857-1.136-.864l-.003.002c-.002-.01-.006-.021-.006-.029h-.008c-.149-.484-.633-.763-1.131-.664-.356.067-.624.336-.741.665h-.12c0 .707.303 1.932 2.318 5.064.01.016.018.029.029.046.015.023.032.048.047.071.218.337.449.689.708 1.071-.503.124-1.017.187-1.539.187zm28.281 33.061c-.892.593-4.254 1.5-9.843 1.5s-8.952-.907-9.843-1.5c.837-.557 3.853-1.39 8.843-1.49v1.131c0 .553.448 1 1 1s1-.447 1-1v-1.131c4.99.099 8.005.933 8.843 1.49zm-8.125-17.216c-.428.535-1.067.848-1.751.856h-.029c-.676 0-1.312-.296-1.749-.815-1.849-2.199-4.633-5.559-7.378-9.047 3.396.668 7.865.722 9.188.722 1.275 0 2.558-.046 3.794-.127l-4.398 6.566c-.307.459-.184 1.08.274 1.388.171.114.364.169.556.169.322 0 .639-.155.832-.443l5.299-7.911c.666-.079 1.3-.17 1.887-.273.167-.029.308-.061.464-.091-1.931 2.584-4.241 5.571-6.989 9.006zM46.164 9.308c0 .344-.774.874-2.44 1.393l1.564-2.334c.566.355.876.683.876.941z"/>
</svg>
