<svg xmlns="http://www.w3.org/2000/svg" viewBox="0 0 54 54">
  <path d="M44.017 45.677c.186-.641.37-1.282.541-1.927.151-.569.291-1.14.43-1.711.119-.49.235-.981.346-1.473.15-.668.293-1.338.427-2.01.072-.362.139-.724.206-1.087.145-.778.285-1.557.408-2.339.023-.145.041-.291.063-.436.679-4.458 1.022-8.97.989-13.515l-.001-.146c0-1.654-.743-2.977-1.894-3.648V12h-5V9h-5V5h-5V0h-7v5h-5v4h-5v3h-5v5.344c-1.191.657-1.963 2.002-1.963 3.689v.172c-.011 4.468.334 8.906.993 13.293.034.229.064.46.101.689.118.746.252 1.488.389 2.231.074.404.149.807.229 1.209.13.649.267 1.296.411 1.942.115.518.237 1.034.362 1.549.135.557.271 1.115.417 1.67.173.658.359 1.312.548 1.965.123.427.24.856.369 1.281.333 1.095.684 2.185 1.06 3.266l.294.846.019-.004C12.429 52.757 14.226 54 15.968 54h22.061c2.112 0 3.904-1.415 4.445-3.415l.048-.034.055-.331c.378-1.076.73-2.16 1.065-3.249.131-.429.25-.862.375-1.294zm.488-11.584c-.031.209-.059.419-.091.628-.114.733-.243 1.463-.376 2.192-.068.37-.138.739-.21 1.108-.127.646-.26 1.29-.402 1.932-.111.498-.231.995-.351 1.491-.129.535-.254 1.072-.394 1.604-.268 1.02-.551 2.037-.859 3.049-.065.213-.139.423-.205.636-.225.719-.462 1.434-.706 2.148-.343-.064-.774-.148-1.199-.231-2.944-.577-8.421-1.65-12.679-1.65-4.963 0-11.583 1.298-13.968 1.802-.22-.653-.434-1.308-.638-1.965-.08-.258-.167-.513-.245-.771-.305-1.017-.587-2.039-.854-3.064-.13-.502-.246-1.009-.367-1.513-.128-.532-.256-1.065-.374-1.599-.135-.617-.261-1.237-.383-1.857-.08-.404-.156-.809-.23-1.214-.126-.695-.248-1.39-.357-2.088-.043-.277-.081-.555-.122-.833-.391-2.675-.662-5.372-.8-8.085-.003-.057-.008-.114-.01-.172.134-.483.516-1.341 1.538-1.341h2.859c1.326 0 2.568.638 3.322 1.705 2.234 3.162 7.237 5.12 10.591 5.12 3.356 0 8.362-1.958 10.596-5.12.754-1.067 1.996-1.705 3.322-1.705h2.859c1.065 0 1.437.954 1.552 1.393-.002.032-.004.065-.006.097-.131 2.786-.407 5.557-.813 8.303zM8.57 21.208v-.175c0-.884.387-1.823 1.22-2.067.163-.044.304-.064.434-.064h2.859c.373 0 .764.061 1.163.181l.004.001c.876.266 1.653.822 2.186 1.566v.001c.016.023.035.04.052.062.548.749 1.247 1.43 2.046 2.03v.015l.432.298c.033.023.069.042.102.064 1.359.918 2.932 1.622 4.466 2.065v.024l.773.18c.027.006.051.008.078.014.445.102.883.182 1.305.236.021.003.04.003.06.006.433.053.852.082 1.246.082.413 0 .852-.03 1.308-.088.014-.002.029-.004.043-.006.455-.06.925-.146 1.404-.261.005-.001.009-.001.014-.003l.768-.183v-.024c1.533-.45 3.1-1.16 4.451-2.083.04-.027.082-.05.122-.078l.426-.299v-.016c.777-.593 1.459-1.261 1.994-1.996.011-.015.024-.026.034-.041.549-.765 1.347-1.328 2.247-1.585.377-.108.75-.163 1.106-.163h2.859c.136 0 .287.026.472.08.805.263 1.181 1.183 1.181 2.058l.001.152c.004.506-.016 1.01-.022 1.516-.487-.26-1.036-.41-1.632-.41h-2.859c-1.975 0-3.827.954-4.956 2.551-1.806 2.557-6.092 4.274-8.962 4.274-2.868 0-7.151-1.718-8.957-4.274-1.129-1.598-2.981-2.551-4.956-2.551h-2.859c-.592 0-1.139.149-1.626.408-.006-.498-.028-.997-.027-1.497zM43.533 14v2.901h-2.619c-.126 0-.253.004-.381.013V14h3zm-5-3v6.395c-1.022.433-1.922 1.133-2.575 2.057-.017.023-.037.045-.054.069-.114.154-.236.3-.372.436V11h3.001zm-5-4v14.636c-.906.527-1.949.838-3 1.098V7h3zm-8-5h3v21.582c-.252.043-.49.075-.723.098-.027.003-.055.006-.082.008-.477.044-.929.046-1.406.006-.021-.002-.042-.004-.062-.006-.234-.022-.474-.052-.727-.094V2zm-5 5h3v15.743c-1.048-.25-2.091-.546-3-1.064V7zm-5 4h3v9.017c-.168-.157-.318-.326-.452-.511-.013-.018-.029-.035-.042-.054-.639-.904-1.513-1.592-2.506-2.027V11zm-5 3h3v2.92c-.151-.013-.301-.019-.45-.019h-2.55V14zm27.496 38H15.968c-.816 0-1.74-.573-2.199-1.3 2.525-.522 8.719-1.7 13.264-1.7 4.063 0 9.417 1.049 12.293 1.612.356.07.646.126.907.176-.469.735-1.282 1.212-2.204 1.212z"/>
  <path d="M27.533 33c-4.411 0-8 2.691-8 6s3.589 6 8 6 8-2.691 8-6-3.589-6-8-6zm0 10c-3.252 0-6-1.832-6-4s2.748-4 6-4 6 1.832 6 4-2.747 4-6 4z"/>
</svg>
