<svg width="214" height="48" viewBox="0 0 214 48" fill="none" xmlns="http://www.w3.org/2000/svg">
<path fill-rule="evenodd" clip-rule="evenodd" d="M47.9974 43.3185C47.9992 42.9665 47.9302 42.6177 47.7946 42.2929C47.659 41.968 47.4595 41.6737 47.2079 41.4275L28.2962 24.3058L32.7582 19.5964C33.3835 19.882 34.0614 20.0342 34.7488 20.0433C35.3802 20.0449 36.0057 19.9211 36.5889 19.6791C37.1722 19.4371 37.7016 19.0818 38.1465 18.6336L47.7224 9.04156C47.8501 8.91408 47.9219 8.74111 47.922 8.5607C47.9222 8.38029 47.8506 8.20721 47.7232 8.07954C47.5957 7.95187 47.4228 7.88007 47.2424 7.87993C47.062 7.87979 46.889 7.95133 46.7613 8.07881L37.7346 17.0866C37.5285 17.0866 37.048 16.9154 36.3958 16.4678L45.8002 7.04735C45.9278 6.91991 45.9997 6.74697 45.9998 6.56658C46 6.38619 45.9285 6.21313 45.8011 6.08546C45.6736 5.95779 45.5007 5.88597 45.3204 5.88581C45.14 5.88565 44.967 5.95716 44.8393 6.0846L35.2976 15.6437C34.9433 15.3345 34.6107 15.0013 34.3022 14.6465L43.8437 5.08689C43.9714 4.95941 44.0432 4.78645 44.0433 4.60603C44.0435 4.42562 43.9719 4.25254 43.8445 4.12487C43.717 3.9972 43.5441 3.9254 43.3637 3.92526C43.1833 3.92512 43.0103 3.99666 42.8826 4.12413L33.4797 13.5446C33.0336 12.8571 32.8618 12.3757 32.8618 12.2039L41.8883 3.16163C42.0159 3.03415 42.0877 2.86118 42.0878 2.68077C42.088 2.50036 42.0165 2.32728 41.889 2.19961C41.7616 2.07194 41.5886 2.00014 41.4082 2C41.2279 1.99986 41.0548 2.0714 40.9272 2.19887L31.8317 11.2756L31.3512 11.7567C30.9024 12.2022 30.5469 12.7327 30.3053 13.3171C30.0637 13.9015 29.9408 14.5282 29.944 15.1606C29.912 15.6823 29.9699 16.2056 30.1151 16.7076L27.1601 19.4702C27.162 19.4665 27.1631 19.4624 27.1633 19.4583C27.1633 19.4238 27.1978 19.4238 27.1633 19.3893V19.3551C27.1597 19.329 27.1477 19.3048 27.1291 19.2861C26.9917 19.1832 15.4595 8.42181 7.63394 3.67723C6.05514 2.74821 5.09402 3.19586 4.54478 3.74617C4.37907 3.90639 4.24791 4.09884 4.15938 4.31168C4.07085 4.52451 4.02682 4.75322 4.03 4.98372C4.03005 5.21378 4.07556 5.44157 4.1639 5.65399C4.25224 5.86641 4.38168 6.05928 4.54478 6.22151L22.5298 24.2371L4.78505 41.462C4.53622 41.71 4.33878 42.0047 4.20406 42.3292C4.06935 42.6536 4 43.0015 4 43.3529C4 43.7042 4.06935 44.0521 4.20406 44.3766C4.33878 44.7011 4.53622 44.9958 4.78505 45.2438C5.27862 45.7312 5.94523 46.0032 6.63885 46C7.3568 45.9908 8.04419 45.708 8.56084 45.2093L25.5505 27.228L43.4676 45.2093C43.7141 45.4597 44.008 45.6586 44.332 45.7943C44.6561 45.93 45.004 45.9999 45.3553 45.9999C45.7067 45.9999 46.0545 45.93 46.3786 45.7943C46.7027 45.6586 46.9966 45.4597 47.2431 45.2093C47.4961 44.966 47.6943 44.6715 47.8244 44.3454C47.9544 44.0193 48.0134 43.6692 47.9974 43.3185ZM27.0266 19.527H27.1L27.0266 19.5957V19.527Z" fill="white"/>
<path d="M53.8379 18.2812L58.8008 3.5752H62.5928L67.5879 18.292L68.834 18.5605V20H62.0342V18.5605L63.5811 18.2812L62.8076 15.6279H57.4043L56.6523 18.3242L58.3604 18.5605V20H52.5703L52.5488 18.5605L53.8379 18.2812ZM62.3242 13.9736L60.3799 7.32422L60.0469 5.80957L59.7139 7.32422L57.8662 13.9736H62.3242ZM75.6811 18.2812V5.27246L72.9096 5.37988L72.018 10.1494H69.977L70.2992 3.65039H84.5541L84.8656 10.1494H82.8998L81.9545 5.37988L79.3549 5.27246V18.2705L82.3627 18.5605V20H72.9203V18.5605L75.6811 18.2812ZM88.2859 18.292L89.7791 5.46582L87.6199 5.16504V3.65039H94.7313L97.535 13.1572L97.9324 15.2412L98.2869 13.1572L100.639 3.65039H107.826V5.16504L105.495 5.47656L107.407 18.2812L109.233 18.5605V20H101.875V18.5605L103.69 18.292L102.584 8.82812L102.165 4.89648L101.531 7.93652L98.577 19.377H95.9451L92.4754 8.73145L91.5301 4.83203L91.2723 8.81738L90.574 18.2812L92.7547 18.5605V20H86.4275V18.5605L88.2859 18.292ZM110.817 11.8896C110.817 10.1924 111.132 8.70638 111.762 7.43164C112.392 6.1569 113.277 5.17578 114.415 4.48828C115.561 3.79362 116.886 3.44629 118.39 3.44629C120.861 3.45345 122.694 4.1696 123.89 5.59473C125.086 7.0127 125.684 9.00716 125.684 11.5781C125.684 13.2969 125.365 14.8115 124.728 16.1221C124.09 17.4326 123.192 18.4495 122.031 19.1729C120.878 19.889 119.543 20.2471 118.025 20.2471C116.392 20.2471 115.038 19.9033 113.964 19.2158C112.897 18.5212 112.106 17.5508 111.59 16.3047C111.074 15.0586 110.817 13.5869 110.817 11.8896ZM114.813 11.8682C114.813 14.167 115.11 15.8893 115.704 17.0352C116.299 18.181 117.144 18.7539 118.239 18.7539C118.963 18.7539 119.579 18.4854 120.087 17.9482C120.603 17.4111 120.997 16.609 121.269 15.542C121.548 14.4678 121.688 13.1501 121.688 11.5889C121.688 9.31152 121.39 7.63216 120.796 6.55078C120.209 5.4694 119.36 4.92871 118.25 4.92871C117.147 4.92871 116.299 5.50521 115.704 6.6582C115.11 7.8112 114.813 9.54785 114.813 11.8682ZM127.965 11.9434C127.965 10.2031 128.316 8.69564 129.018 7.4209C129.727 6.139 130.698 5.16146 131.929 4.48828C133.161 3.8151 134.554 3.47852 136.108 3.47852C136.745 3.47852 137.368 3.51432 137.977 3.58594C138.586 3.65755 139.27 3.75781 140.029 3.88672C140.623 3.97982 140.999 4.03353 141.157 4.04785L140.899 8.83887H138.6L137.848 5.59473C137.726 5.43001 137.501 5.29753 137.171 5.19727C136.842 5.08984 136.398 5.03613 135.839 5.03613C135.08 5.03613 134.418 5.2832 133.852 5.77734C133.294 6.27148 132.86 7.0127 132.552 8.00098C132.244 8.9821 132.09 10.1888 132.09 11.6211C132.09 12.9674 132.23 14.1742 132.509 15.2412C132.796 16.3011 133.233 17.139 133.82 17.7549C134.407 18.3708 135.138 18.6787 136.011 18.6787C136.57 18.6787 137.003 18.6143 137.311 18.4854C137.626 18.3493 137.873 18.1774 138.052 17.9697L139.084 15.5957L141.168 15.7891L140.759 19.3984C140.53 19.4199 140.312 19.4557 140.104 19.5059C139.904 19.556 139.642 19.6276 139.32 19.7207C138.768 19.8854 138.249 20.0143 137.762 20.1074C137.282 20.2005 136.685 20.2471 135.968 20.2471C134.228 20.2471 132.76 19.9141 131.564 19.248C130.368 18.582 129.469 17.6296 128.868 16.3906C128.266 15.1517 127.965 13.6693 127.965 11.9434ZM150.442 18.7217V17.2178C148.494 17.2035 146.983 16.9456 145.909 16.4443C144.842 15.943 144.115 15.2949 143.729 14.5C143.349 13.6979 143.159 12.7598 143.159 11.6855C143.159 10.64 143.417 9.72689 143.933 8.94629C144.448 8.16569 145.247 7.54622 146.328 7.08789C147.417 6.62956 148.788 6.37533 150.442 6.3252V4.96094L148.541 4.62793V3.17773H155.76V4.62793L153.901 4.96094V6.30371C155.878 6.3252 157.4 6.57943 158.467 7.06641C159.541 7.55339 160.264 8.18717 160.637 8.96777C161.009 9.74837 161.195 10.6865 161.195 11.7822C161.195 12.8135 160.92 13.7337 160.368 14.543C159.824 15.3451 159.004 15.986 157.908 16.4658C156.82 16.9385 155.484 17.1927 153.901 17.2285V18.7324L155.781 18.9902V20.4727H148.562V18.9795L150.442 18.7217ZM150.442 7.52832C149.461 7.59993 148.716 7.8112 148.208 8.16211C147.7 8.50586 147.359 8.95345 147.188 9.50488C147.023 10.0492 146.94 10.7367 146.94 11.5674C146.94 12.3122 147.03 12.9854 147.209 13.5869C147.388 14.1885 147.735 14.7113 148.251 15.1553C148.767 15.5921 149.497 15.8678 150.442 15.9824V7.52832ZM153.901 16.0146C154.875 15.943 155.617 15.7282 156.125 15.3701C156.641 15.0049 156.984 14.5358 157.156 13.9629C157.328 13.39 157.414 12.6774 157.414 11.8252C157.414 11.0804 157.325 10.418 157.146 9.83789C156.974 9.25781 156.626 8.76367 156.104 8.35547C155.588 7.9401 154.854 7.67871 153.901 7.57129V16.0146ZM164.949 18.292V5.47656L163.241 5.16504V3.65039H175.132L175.433 7.44238H173.682L172.93 5.31543L168.59 5.10059V10.8154L171.319 10.751L171.716 8.97852H173.285V14.4463H171.716L171.34 12.5557L168.59 12.4912V18.4424L173.424 18.1523L174.767 15.3809L176.604 15.9072L176.045 20H163.273V18.5605L164.949 18.292ZM180.529 18.292V5.46582L178.929 5.16504V3.65039H182.216C182.61 3.65039 183.082 3.63249 183.634 3.59668C184.6 3.54655 185.36 3.52148 185.911 3.52148C187.508 3.52148 188.768 3.70768 189.692 4.08008C190.616 4.45247 191.271 4.99316 191.658 5.70215C192.045 6.40397 192.238 7.29557 192.238 8.37695C192.238 9.61589 191.98 10.6794 191.465 11.5674C190.949 12.4482 190.197 13.125 189.209 13.5977C188.228 14.0632 187.053 14.2959 185.685 14.2959C185.349 14.2959 185.034 14.2887 184.74 14.2744C184.446 14.2601 184.253 14.2422 184.16 14.2207V18.2812L187.007 18.5605V20H178.853V18.5605L180.529 18.292ZM185.621 12.8135C186.487 12.8135 187.182 12.4805 187.705 11.8145C188.228 11.1484 188.489 10.0312 188.489 8.46289C188.489 7.25977 188.246 6.37891 187.759 5.82031C187.272 5.26172 186.538 4.98242 185.556 4.98242C185.141 4.98242 184.776 5.01107 184.461 5.06836C184.382 5.08268 184.278 5.09701 184.149 5.11133V12.7061C184.486 12.7777 184.976 12.8135 185.621 12.8135ZM194.595 18.2812L199.558 3.5752H203.35L208.345 18.292L209.591 18.5605V20H202.791V18.5605L204.338 18.2812L203.565 15.6279H198.161L197.409 18.3242L199.117 18.5605V20H193.327L193.306 18.5605L194.595 18.2812ZM203.081 13.9736L201.137 7.32422L200.804 5.80957L200.471 7.32422L198.623 13.9736H203.081ZM55.5029 43.2812V30.4658L53.8486 30.165V28.6504H57.2217C57.6012 28.6504 58.2422 28.6253 59.1445 28.5752C59.8464 28.5322 60.3656 28.5107 60.7021 28.5107C62.249 28.5107 63.4701 28.6576 64.3652 28.9512C65.2676 29.2376 65.9049 29.653 66.2773 30.1973C66.6569 30.7344 66.8467 31.4111 66.8467 32.2275C66.8467 32.9508 66.6963 33.599 66.3955 34.1719C66.0947 34.7376 65.6794 35.1995 65.1494 35.5576C64.6195 35.9085 64.0143 36.1377 63.334 36.2451C64.265 36.238 65.0778 36.3848 65.7725 36.6855C66.4743 36.9863 67.0186 37.4268 67.4053 38.0068C67.792 38.5798 67.9854 39.2673 67.9854 40.0693C67.9854 43.4424 65.64 45.1289 60.9492 45.1289C60.4479 45.1289 59.832 45.1074 59.1016 45.0645C58.3854 45.0215 57.7803 45 57.2861 45H53.8271V43.5605L55.5029 43.2812ZM59.1016 35.6758C59.3737 35.7044 59.9466 35.7188 60.8203 35.7188C61.6725 35.7188 62.292 35.4609 62.6787 34.9453C63.0654 34.4225 63.2588 33.6598 63.2588 32.6572C63.2588 31.7262 63.0511 31.0459 62.6357 30.6162C62.2204 30.1865 61.54 29.9717 60.5947 29.9717C60.3727 29.9717 60.1006 29.986 59.7783 30.0146C59.4632 30.0361 59.2376 30.0576 59.1016 30.0791V35.6758ZM59.0908 43.4316C59.32 43.5605 59.9001 43.625 60.8311 43.625C61.9482 43.625 62.7575 43.3457 63.2588 42.7871C63.7673 42.2214 64.0215 41.4085 64.0215 40.3486C64.0215 39.6182 63.9141 39.0381 63.6992 38.6084C63.4915 38.1715 63.1657 37.8564 62.7217 37.6631C62.2848 37.4626 61.7119 37.3623 61.0029 37.3623C60.1364 37.3623 59.499 37.373 59.0908 37.3945V43.4316ZM81.9115 45C81.6537 45 81.3959 44.846 81.1381 44.5381C80.8803 44.2301 80.6368 43.8506 80.4076 43.3994C80.1856 42.9482 79.8992 42.3252 79.5482 41.5303C79.1615 40.6423 78.8321 39.9333 78.56 39.4033C78.295 38.8734 77.9978 38.4222 77.6684 38.0498C77.3389 37.6774 76.9988 37.4912 76.6479 37.4912H75.8314V43.2812L77.7221 43.582V45H70.6V43.5605L72.2436 43.2705V30.4658L70.6 30.165V28.6504H77.4213V30.165L75.8314 30.4766V36.1377H77.3139L80.9447 30.4766L79.4301 30.165V28.6504H85.392V30.165L83.5551 30.4658L79.4301 36.2129C79.96 36.3561 80.4577 36.6748 80.9232 37.1689C81.3887 37.6559 81.7969 38.193 82.1479 38.7803C82.5059 39.3675 82.9177 40.1051 83.3832 40.9932C83.7699 41.7451 84.0743 42.3001 84.2963 42.6582C84.5183 43.0091 84.726 43.2168 84.9193 43.2812L85.7357 43.5605V45H81.9115ZM89.3172 42.8408H90.9178C91.4119 42.8408 91.7879 42.8122 92.0457 42.7549C92.3035 42.6904 92.5005 42.5758 92.6365 42.4111C92.7798 42.2393 92.8979 41.9814 92.991 41.6377L87.9744 30.4658L86.7391 30.165V28.6504H93.8074V30.165L91.9598 30.4766L94.6346 37.3301L95.1824 39.0381L95.741 37.3086L98.0398 30.4551L96.5037 30.165V28.6504H101.488V30.165L100.296 30.4766L96.0525 41.4658C95.7303 42.2607 95.4188 42.9124 95.118 43.4209C94.8243 43.9222 94.409 44.3519 93.8719 44.71C93.3419 45.068 92.6688 45.2471 91.8523 45.2471C91.4012 45.2471 90.9285 45.2077 90.4344 45.1289C89.9402 45.0501 89.5678 44.9535 89.3172 44.8389V42.8408ZM102.76 36.9434C102.76 35.2031 103.111 33.6956 103.813 32.4209C104.522 31.139 105.492 30.1615 106.724 29.4883C107.956 28.8151 109.349 28.4785 110.903 28.4785C111.54 28.4785 112.163 28.5143 112.772 28.5859C113.38 28.6576 114.064 28.7578 114.823 28.8867C115.418 28.9798 115.794 29.0335 115.951 29.0479L115.694 33.8389H113.395L112.643 30.5947C112.521 30.43 112.295 30.2975 111.966 30.1973C111.637 30.0898 111.193 30.0361 110.634 30.0361C109.875 30.0361 109.212 30.2832 108.647 30.7773C108.088 31.2715 107.655 32.0127 107.347 33.001C107.039 33.9821 106.885 35.1888 106.885 36.6211C106.885 37.9674 107.025 39.1742 107.304 40.2412C107.59 41.3011 108.027 42.139 108.614 42.7549C109.202 43.3708 109.932 43.6787 110.806 43.6787C111.364 43.6787 111.798 43.6143 112.106 43.4854C112.421 43.3493 112.668 43.1774 112.847 42.9697L113.878 40.5957L115.962 40.7891L115.554 44.3984C115.325 44.4199 115.106 44.4557 114.899 44.5059C114.698 44.556 114.437 44.6276 114.114 44.7207C113.563 44.8854 113.044 45.0143 112.557 45.1074C112.077 45.2005 111.479 45.2471 110.763 45.2471C109.023 45.2471 107.555 44.9141 106.359 44.248C105.163 43.582 104.264 42.6296 103.662 41.3906C103.061 40.1517 102.76 38.6693 102.76 36.9434ZM118.63 43.2812L123.593 28.5752H127.385L132.38 43.292L133.627 43.5605V45H126.827V43.5605L128.374 43.2812L127.6 40.6279H122.197L121.445 43.3242L123.153 43.5605V45H117.363L117.341 43.5605L118.63 43.2812ZM127.117 38.9736L125.172 32.3242L124.839 30.8096L124.506 32.3242L122.659 38.9736H127.117Z" fill="white"/>
</svg>
