<svg xmlns="http://www.w3.org/2000/svg" viewBox="0 0 500 500">
  <path class="color-text--contrast" fill-rule="evenodd" d="M339.993 329.032a10.747 10.747 0 0 0-3.23-7.735l-77.369-70.034L277.648 232a20.253 20.253 0 0 0 8.144 1.828 19.519 19.519 0 0 0 13.9-5.766l1.965-1.968 37.211-37.267a2.782 2.782 0 0 0-3.932-3.938l-36.929 36.845c-.843 0-2.809-.7-5.477-2.531l38.474-38.533a2.782 2.782 0 0 0-3.931-3.938l-39.036 39.1a41.846 41.846 0 0 1-4.072-4.079L323 172.651a2.782 2.782 0 1 0-3.932-3.938L280.6 207.246c-1.825-2.812-2.528-4.781-2.528-5.484L315 164.776a2.782 2.782 0 0 0-3.932-3.938l-37.21 37.127-1.966 1.968a19.481 19.481 0 0 0-5.757 13.923 18.669 18.669 0 0 0 .7 6.328l-12.089 11.3a.122.122 0 0 0 .013-.049c0-.141.141-.141 0-.282v-.14a.493.493 0 0 0-.14-.282c-.562-.421-47.741-44.439-79.756-63.846-6.459-3.8-10.391-1.969-12.638.282a6.908 6.908 0 0 0-2.106 5.062 7.143 7.143 0 0 0 2.106 5.063l73.578 73.69-72.595 70.456a10.919 10.919 0 0 0 0 15.469 10.724 10.724 0 0 0 7.584 3.093 11.535 11.535 0 0 0 7.863-3.234l69.506-73.55 73.3 73.55a10.839 10.839 0 0 0 15.446 0 10.091 10.091 0 0 0 3.086-7.734zM254.2 231.716h.3l-.3.281v-.281z"/>
  <path class="color-primary" fill-rule="evenodd" d="M250 49c111.009 0 201 89.991 201 201s-89.991 201-201 201S49 361.009 49 250 138.991 49 250 49zm0 70a131 131 0 1 1-131 131 131 131 0 0 1 131-131z" data-name="Эллипс 1"/>
  <path class="color-text--contrast" fill-rule="evenodd" d="M102.936 269.033c-.57-6.394-5-11.032-10.555-11.032a10.454 10.454 0 0 0-8.989 5.284A10.08 10.08 0 0 0 74.619 258c-5.55 0-9.985 4.639-10.554 11.032a11.6 11.6 0 0 0 .332 4.193 18.056 18.056 0 0 0 5.4 9.194L83.383 295 97.2 282.42a18.054 18.054 0 0 0 5.4-9.195 11.646 11.646 0 0 0 .336-4.192zm334 0c-.57-6.394-5-11.032-10.555-11.032a10.454 10.454 0 0 0-8.989 5.284 10.08 10.08 0 0 0-8.773-5.285c-5.55 0-9.986 4.639-10.554 11.032a11.6 11.6 0 0 0 .331 4.193 18.063 18.063 0 0 0 5.4 9.194L417.383 295l13.817-12.58a18.057 18.057 0 0 0 5.4-9.195 11.646 11.646 0 0 0 .336-4.192zM145.152 397.482l-1.712 2.877 6.621 3.939 3.475 2.067 3.537 2.1q13.468 8.013 19.184-1.594a7.961 7.961 0 0 0 1.225-4.587 8.081 8.081 0 0 0-1.629-4.352 13.768 13.768 0 0 0-4.168-3.639 10.14 10.14 0 0 0 4.243.776 8.191 8.191 0 0 0 3.921-1.162 8.676 8.676 0 0 0 3.012-3.1 7.394 7.394 0 0 0 1.176-4.434 7.955 7.955 0 0 0-2.279-4.5 28.264 28.264 0 0 0-6.54-4.988l-2.981-1.773-3.681-2.19-6.456-3.841-1.85 3.108 2.835 2.442-14.412 24.226zm19.074-9.085l6.174-10.379q.44.15 1.412.6a17.773 17.773 0 0 1 1.61.827q2.715 1.615 3.191 3.528a6.1 6.1 0 0 1-1.075 4.521 8.076 8.076 0 0 1-3.647 3.6 4.874 4.874 0 0 1-4.422-.662q-2.51-1.493-3.243-2.036zm-8.854 14.836l6.89-11.582 3.66 2.178a9.516 9.516 0 0 1 2.965 2.526 4.3 4.3 0 0 1 .8 2.917 8.921 8.921 0 0 1-1.375 3.691 7.8 7.8 0 0 1-4.211 3.778q-2.406.747-5.614-1.162a10.364 10.364 0 0 1-3.114-2.346zm57.447 27.135l8.24 2.16.812-3.1-1.6-1.063a3.126 3.126 0 0 1-.987-1.7q-.418-1.334-1.03-4.092-.753-3.262-1.4-5.462a20.889 20.889 0 0 0-1.737-4.177 7.224 7.224 0 0 0-2.68-2.892l12.132-10.053 4.127.389.856-3.263-12.845-3.366-.856 3.263 3.088 1.526-11.019 10.147-3.194-.837 3.2-12.2 3.6.227.856-3.264-14.7-3.851-.855 3.263 3.373 1.577-7.23 27.588-3.705-.3-.812 3.1 15.34 4.012.8-3.055-3.9-1.716 3.269-12.475 1.759.461A3.1 3.1 0 0 1 207.6 413a14.245 14.245 0 0 1 1.168 3.423q.418 1.94.917 5.137.46 2.866.808 4.516a12.942 12.942 0 0 0 .919 2.862 2.349 2.349 0 0 0 1.405 1.432zm78.606-18.8a21.5 21.5 0 0 0 5.1 8.456 14.035 14.035 0 0 0 7.727 3.868 20.311 20.311 0 0 0 9.974-1.206 22.109 22.109 0 0 0 3.68-1.617q1.422-.823 2.981-1.944.913-.645 1.5-1.026a10.373 10.373 0 0 1 1.288-.7l-1.756-7.732-4.519 1.133-.462 5.607a4.39 4.39 0 0 1-1.181 1.583 7.857 7.857 0 0 1-2.6 1.369 6.56 6.56 0 0 1-5.267-.265 12.207 12.207 0 0 1-4.55-4.173 29.618 29.618 0 0 1-3.485-7.06 25.812 25.812 0 0 1-1.631-7.737 10.265 10.265 0 0 1 1.15-5.49 6.589 6.589 0 0 1 3.632-2.977 10.5 10.5 0 0 1 2.911-.667 2.938 2.938 0 0 1 1.711.322l3.907 6.061 4.83-1.7-2.917-10.023q-.513.129-2.489.5-2.535.435-4.533.884a35.735 35.735 0 0 0-4.007 1.156 19.465 19.465 0 0 0-8.051 5.16 15.943 15.943 0 0 0-3.993 8.152 19.688 19.688 0 0 0 1.045 10.07zm51.981-5.445l1.953 2.543 10.344-7.7-1.914-2.571-3.366 1.849-2.243-5.817 9.653-7.187 4.911 3.712-2.392 2.556 1.915 2.572 12.148-9.045-1.915-2.571-2.582 1.18-28.4-19.516-6.774 5.043 10.6 32.742zm3.4-15.267L341.4 376.7l-1.388-3.107 2.578 2.221 12.179 9.108zm-99.85 41.263a10.128 10.128 0 0 0 2.488.646 20.143 20.143 0 0 0 3.159.263 8.088 8.088 0 0 0 4.51-1.165 8.786 8.786 0 0 0 2.775-2.807 32.356 32.356 0 0 0 2.07-4.229l9.45-23.833 2.656-.676v-3.729h-11.1v3.729l3.422.626-5.12 14.788-1.244 3.732-1.221-3.686-5.957-14.787 4.115-.673v-3.729h-15.746v3.729l2.751.649 11.174 24.106a4.383 4.383 0 0 1-.778 1.657 2.392 2.392 0 0 1-1.328.742 12.063 12.063 0 0 1-2.512.2h-3.565v4.45zm-140.57-229.91l2.917 1.33 5.528-11.651-2.9-1.374-2.106 3.211-4.708-4.087 5.158-10.873 6.077.976-.914 3.38 2.9 1.374 6.491-13.684-2.9-1.374-1.727 2.253-34.233-3.93-3.62 7.631 24.707 23.954zm-4.154-15.079l-11.408-9.967-2.682-2.093 3.318.753 15.028 2.336zm27.6-27.821l2.421 2.1 13.782-15.886-2.422-2.1-4.878 4.637-21.777-18.893 3.794-4.373 9.494 5.449 2.869-3.307-11.388-8.962-20.806 23.983 10.464 10.028 2.979-3.434-6.814-8.54 4.045-4.663 21.8 18.909zm22.292-26.022l1.625 2.763 12.141-7.15-1.625-2.764-4.5 1.926-9.346-18.957-4-7.942 6.218 6.418 18.682 16.52 5.052-2.972-7.246-25.3-2.225-6.549 5.244 7.075 12.81 16.92-3.182 2.565 1.628 2.76 14.127-8.309-1.625-2.764-3.822 1.526-18.13-22.419 4.123-3.23-1.71-2.908-13.8 8.115 6.219 20.908 1.672 4.4-3.116-3.552-16.114-15.086-13.653 8.03 1.71 2.908 4.485-1.861 11.616 26.311zm48.435-41.734a24.405 24.405 0 0 0 3.607 9.044 13.469 13.469 0 0 0 6.455 5.117 16.686 16.686 0 0 0 9.3.4 16.878 16.878 0 0 0 8.286-4.087 15.775 15.775 0 0 0 4.547-7.68 21.836 21.836 0 0 0 .11-10.095q-1.677-8.205-6.52-11.942t-12.929-2.084a17.08 17.08 0 0 0-8.211 3.975 15.246 15.246 0 0 0-4.52 7.456 21.111 21.111 0 0 0-.125 9.9zm8.711-1.829q-1.5-7.359-.306-11.413t4.808-4.793a6.208 6.208 0 0 1 6.268 2.292q2.636 3.034 4.111 10.257a33.664 33.664 0 0 1 .8 8.531 11.536 11.536 0 0 1-1.536 5.626 5.58 5.58 0 0 1-3.7 2.53q-3.586.732-6.275-2.5t-4.179-10.527zm36.4-5.355a21.5 21.5 0 0 0 1.4 9.777 14.027 14.027 0 0 0 5.6 6.577 20.3 20.3 0 0 0 9.654 2.783 22.045 22.045 0 0 0 4.019-.053q1.63-.2 3.5-.625 1.093-.237 1.785-.358a10.276 10.276 0 0 1 1.459-.143l1.4-7.8-4.6-.721-2.615 4.982a4.38 4.38 0 0 1-1.7 1 7.868 7.868 0 0 1-2.928.246 6.562 6.562 0 0 1-4.746-2.3 12.188 12.188 0 0 1-2.56-5.619 29.627 29.627 0 0 1-.454-7.861 25.83 25.83 0 0 1 1.518-7.76 10.266 10.266 0 0 1 3.2-4.605 6.588 6.588 0 0 1 4.506-1.323 10.5 10.5 0 0 1 2.94.522 2.939 2.939 0 0 1 1.45.964l1.232 7.106 5.11.321 1.223-10.379q-.522-.081-2.485-.516-2.5-.589-4.519-.955a35.673 35.673 0 0 0-4.139-.5 19.459 19.459 0 0 0-9.427 1.608 15.933 15.933 0 0 0-6.858 5.947 19.686 19.686 0 0 0-2.969 9.679zm47.645 22.514l-1.133 3.126 15.116 5.479 1.125-3.1-3.741-1.966 1.158-3.194a22.305 22.305 0 0 0 8.944 1.547 12.383 12.383 0 0 0 6.612-2.163 10.672 10.672 0 0 0 3.814-5.152 14.48 14.48 0 0 0 .968-6.323 9.269 9.269 0 0 0-3.088-5.628q-2.808-2.75-9.016-5l1.047-2.89 4.141.724 1.117-3.082-15.116-5.479-1.117 3.082 3.732 2.13-1.047 2.89a23.547 23.547 0 0 0-9.128-1.671 11.559 11.559 0 0 0-6.445 2.089 10.905 10.905 0 0 0-3.709 5.177 14.458 14.458 0 0 0-.939 6.348 9.591 9.591 0 0 0 3.079 5.758q2.788 2.8 8.908 5.018l-1.15 3.172zm6.211-4.849a9.047 9.047 0 0 1-3.957-3.406 7.243 7.243 0 0 1-1-4.064 15.732 15.732 0 0 1 .97-4.433 15.941 15.941 0 0 1 2.1-4.138 5.523 5.523 0 0 1 3.145-2.041 10.183 10.183 0 0 1 5.155.38zm13.627-14.988a9.527 9.527 0 0 1 4.031 3.306 6.629 6.629 0 0 1 1.053 3.906 15.31 15.31 0 0 1-.957 4.361 16.84 16.84 0 0 1-2.162 4.281 5.783 5.783 0 0 1-3.212 2.157 9.867 9.867 0 0 1-5.161-.331zm13.98 33.254l-1.894 2.586 22.953 16.807 6.347-6.563-2.619-3.348-6.191 3.392-8.687-6.36 7.59-10.367 4.942 3.619-1.854 3.95 2.818 2.064 7.195-9.826-2.819-2.064-3.089 2.72-4.9-3.59 7.336-10.019 7.8 5.711-1.589 5 3.147 2.3 4.449-7.21-21.37-15.647-1.998 2.729 2.66 2.807-16.856 23.02zm30.14 23.58l-2.483 2.028 11.485 14.066 2.484-2.028-3.529-5.3 6.969-5.69a7.245 7.245 0 0 0 .761 1.044l1.332 1.631a18.353 18.353 0 0 0 6.168 5.111 11.158 11.158 0 0 0 6.624 1.062 13.508 13.508 0 0 0 6.508-3.09 12.01 12.01 0 0 0 3.742-4.723 8.24 8.24 0 0 0-.019-5.637 23.4 23.4 0 0 0-4.377-7.3l-3.208-3.929-2-2.446-4.631-5.671-2.819 2.3 1.744 3.179-21.924 17.905zm19.449 3.58a17.091 17.091 0 0 1-1.891-2.688l12.9-10.531c.217.193.4.343.545.45a9.732 9.732 0 0 1 1.756 1.717 6.187 6.187 0 0 1 1.668 4.97q-.4 2.43-3.492 4.952-4.026 3.286-6.839 3.329a5.619 5.619 0 0 1-4.645-2.2zm2.927 24.473l-2.906 1.355 5.277 11.767 2.925-1.312-1.076-3.686 6.165-.93 4.924 10.982-4.687 3.99-1.978-2.89-2.925 1.312 6.2 13.819 2.925-1.312-.592-2.775 25.206-23.5-3.456-7.706-34.26 3.249zm14.167 6.626l14.987-2.211 3.333-.682-2.726 2.034-11.531 9.916z"/>
</svg>
