<svg xmlns="http://www.w3.org/2000/svg" width="91" height="48">
  <path class="color-text" fill-rule="evenodd" d="M22.2448578 5.28671579V22.7814991h-4.8485542l-6.6480177-7.9476301v7.9476301H5V5.28671579h4.84855423l6.64801767 7.94763011V5.28671579h5.7482859zm2.8491504 0h5.8982413V22.7814991h-5.8982413V5.28671579zm25.9922495 0V22.7814991h-4.8485542l-6.6480177-7.9476301v7.9476301h-5.7482859V5.28671579h4.8485542l6.6480177 7.94763011V5.28671579h5.7482859zm3.561438 17.23236151c-1.1080085-.4415372-2.0202273-1.0871715-2.7366839-1.9369224l3.1740535-3.7488821c.4665299.5831623.924722 1.0163621 1.3745901 1.2996124.4498681.2832503.916391.4248733 1.3995827.4248733.6164859 0 1.0871742-.1832768 1.4120789-.549836.3249048-.3665592.4873547-.908059.4873547-1.6245156V9.73538925h-5.9482263V5.28671579h11.7714899V16.0335112c0 2.3826348-.6123113 4.1695841-1.8369523 5.3609015-1.2246409 1.1913174-3.019921 1.7869671-5.385894 1.7869671-1.3662661 0-2.6033848-.2207653-3.7113933-.6623025zm24.0605136-2.786669h-6.6480176l-1.1746498 3.0490908h-5.9982114l7.6477196-17.49478331h5.798271l7.6477195 17.49478331H79.882859l-1.1746497-3.0490908zm-1.6245156-4.2487331h-3.3989865l1.6994933-4.3986884 1.6994932 4.3986884zm1.643475 24.1805182H72.079151l-1.1746497 3.0490908h-5.9982114l7.6477195-17.4947833h5.798271L86 42.7132842h-6.0981816l-1.1746497-3.0490908zm-1.6245156-4.2487331l-1.6994933-4.3986883-1.6994932 4.3986883h3.3989865zM64.6813569 38.139648v4.5736362H49.0110296v-3.6239194l7.9976152-9.2972277h-7.9976152v-4.5736362h15.6703273v3.6239194l-7.9976152 9.2972277h7.9976152zm-17.1698801 0v4.5736362H31.8411494v-3.6239194l7.9976153-9.2972277h-7.9976153v-4.5736362h15.6703274v3.6239194l-7.9976153 9.2972277h7.9976153zM23.2199176 25.2185009h5.8982412v17.4947833h-5.8982412V25.2185009zm-5.567524.7997615c1.1996483.5331771 2.1243633 1.2996075 2.7741728 2.2993144.6498095.9997069.9747094 2.1660141.9747094 3.4989567 0 1.3329425-.3248999 2.4992497-.9747094 3.4989566-.6498095.9997069-1.5745245 1.7661374-2.7741728 2.2993144-1.1996482.533177-2.6075477.7997615-4.2237405.7997615h-2.5242473v4.2987182H5.00616458V25.2185009h8.42248852c1.6161928 0 3.0240923.2665845 4.2237405.7997615zm-2.7991653 7.3103202c.3998828-.3582283.5998212-.8622396.5998212-1.5120491s-.1999384-1.1538208-.5998212-1.5120492c-.3998827-.3582283-.9996979-.5373397-1.7994634-.5373397h-2.1493591v4.0987778h2.1493591c.7997655 0 1.3995807-.1791115 1.7994634-.5373398z"/>
</svg>
