<svg xmlns="http://www.w3.org/2000/svg" viewBox="0 0 480 480" fill="none">
<circle cx="240" cy="240" r="201" fill="#ED4B11"/>
  <circle cx="240" cy="240" r="131" fill="white"/>
  <path fill="white" fill-rule="evenodd" d="M92.936 259.033c-.57-6.394-5-11.032-10.555-11.032-1.8297.017-3.6229.514-5.2003 1.441-1.5774.928-2.8839 2.253-3.7887 3.843-.8568-1.584-2.1224-2.91-3.6653-3.84-1.5428-.929-3.3066-1.428-5.1077-1.445-5.55 0-9.985 4.639-10.554 11.032-.1458 1.406-.0333 2.827.332 4.193.8334 3.538 2.7155 6.743 5.4 9.194L73.383 285 87.2 272.42c2.6847-2.451 4.5669-5.656 5.4-9.195.3654-1.365.4793-2.786.336-4.192zm334 0c-.57-6.394-5-11.032-10.555-11.032-1.83.017-3.623.514-5.2 1.441-1.578.928-2.884 2.253-3.789 3.843-.857-1.584-2.122-2.91-3.665-3.84-1.543-.929-3.307-1.428-5.108-1.445-5.55 0-9.986 4.639-10.554 11.032-.146 1.406-.034 2.827.331 4.193.834 3.538 2.716 6.743 5.4 9.194L407.383 285l13.817-12.58c2.685-2.451 4.567-5.656 5.4-9.195.365-1.365.479-2.786.336-4.192zM135.152 387.482l-1.712 2.877 13.633 8.106c8.979 5.342 15.373 4.811 19.184-1.594.865-1.369 1.293-2.969 1.225-4.587-.105-1.579-.672-3.092-1.629-4.352-1.129-1.483-2.547-2.721-4.168-3.639 1.342.56 2.789.825 4.243.776 1.384-.05 2.733-.449 3.921-1.162 1.249-.763 2.286-1.829 3.012-3.1.852-1.316 1.264-2.869 1.176-4.434-.251-1.708-1.051-3.287-2.279-4.5-1.925-1.973-4.128-3.653-6.54-4.988l-13.118-7.804-1.85 3.108 2.835 2.442-14.412 24.226-3.521-1.375zm67.667 32.886l8.24 2.16.812-3.1-1.6-1.063c-.503-.446-.849-1.042-.987-1.7-.279-.889-.622-2.253-1.03-4.092-.502-2.175-.969-3.995-1.4-5.462-.426-1.451-1.008-2.852-1.737-4.177-.608-1.194-1.536-2.195-2.68-2.892l12.132-10.053 4.127.389.856-3.263-12.845-3.366-.856 3.263 3.088 1.526-11.019 10.147-3.194-.837 3.2-12.2 3.6.227.856-3.264-14.7-3.851-.855 3.263 3.373 1.577-7.23 27.588-3.705-.3-.812 3.1 15.34 4.012.8-3.055-3.9-1.716 3.269-12.475 1.759.461c.423.144.811.379 1.135.687.324.308.578.683.744 1.098.533 1.087.926 2.237 1.168 3.423.279 1.293.584 3.006.917 5.137.307 1.911.576 3.416.808 4.516.194.986.503 1.947.919 2.862.114.328.299.626.542.874.243.247.538.438.863.558l.002-.002zm78.606-18.8c1.021 3.176 2.767 6.071 5.1 8.456 2.105 2.07 4.809 3.423 7.727 3.868 3.373.44 6.803.025 9.974-1.206 1.273-.426 2.505-.967 3.68-1.617.948-.549 1.942-1.197 2.981-1.944.609-.43 1.109-.772 1.5-1.026.412-.263.843-.497 1.288-.7l-1.756-7.732-4.519 1.133-.462 5.607c-.268.611-.672 1.152-1.181 1.583-.773.616-1.655 1.08-2.6 1.369-.848.323-1.755.466-2.661.42-.907-.046-1.794-.279-2.606-.685-1.849-.978-3.416-2.415-4.55-4.173-1.471-2.188-2.643-4.562-3.485-7.06-.938-2.48-1.488-5.09-1.631-7.737-.134-1.901.264-3.802 1.15-5.49.804-1.405 2.097-2.464 3.632-2.977.934-.36 1.914-.585 2.911-.667.59-.068 1.186.044 1.711.322l3.907 6.061 4.83-1.7-2.917-10.023c-.342.086-1.172.253-2.489.5-1.69.29-3.201.585-4.533.884-1.357.307-2.695.693-4.007 1.156-3.071 1.024-5.838 2.797-8.051 5.16-2.093 2.273-3.48 5.105-3.993 8.152-.535 3.39-.175 6.862 1.045 10.07l.005-.004zm51.981-5.445l1.953 2.543 10.344-7.7-1.914-2.571-3.366 1.849-2.243-5.817 9.653-7.187 4.911 3.712-2.392 2.556 1.915 2.572 12.148-9.045-1.915-2.571-2.582 1.18-28.4-19.516-6.774 5.043 10.6 32.742-1.938 2.21zm-96.45 25.996c.799.32 1.635.537 2.488.646 1.044.171 2.101.258 3.159.263 1.585.062 3.153-.343 4.51-1.165 1.126-.713 2.075-1.673 2.775-2.807.792-1.358 1.484-2.771 2.07-4.229l9.45-23.833 2.656-.676v-3.729h-11.1v3.729l3.422.626-5.12 14.788-1.244 3.732-1.221-3.686-5.957-14.787 4.115-.673v-3.729h-15.746v3.729l2.751.649 11.174 24.106c-.14.601-.405 1.166-.778 1.657-.35.385-.816.646-1.328.742-.828.154-1.67.221-2.512.2h-3.565v4.45l.001-.003zm-140.57-229.91l2.917 1.33 5.528-11.651-2.9-1.374-2.106 3.211-4.708-4.087 5.158-10.873 6.077.976-.914 3.38 2.9 1.374 6.491-13.684-2.9-1.374-1.727 2.253-34.233-3.93-3.62 7.631 24.707 23.954-.67 2.864zm23.446-42.9l2.421 2.1 13.782-15.886-2.422-2.1-4.878 4.637-21.777-18.893 3.794-4.373 9.494 5.449 2.869-3.307-11.388-8.962-20.806 23.983 10.464 10.028 2.979-3.434-6.814-8.54 4.045-4.663 21.8 18.909-3.563 5.052zm22.292-26.022l1.625 2.763 12.141-7.15-1.625-2.764-4.5 1.926-9.346-18.957-4-7.942 6.218 6.418 18.682 16.52 5.052-2.972-7.246-25.3-2.225-6.549 5.244 7.075 12.81 16.92-3.182 2.565 1.628 2.76 14.127-8.309-1.625-2.764-3.822 1.526-18.13-22.419 4.123-3.23-1.71-2.908-13.8 8.115 6.219 20.908 1.672 4.4-3.116-3.552-16.114-15.086-13.653 8.03 1.71 2.908 4.485-1.861 11.616 26.311-3.258 2.618zm48.435-41.734c.583 3.2263 1.809 6.3022 3.607 9.044 1.565 2.3379 3.822 4.1273 6.455 5.117 2.999 1.0128 6.225 1.1516 9.3.4 3.088-.5651 5.958-1.9805 8.286-4.087 2.223-2.0689 3.802-4.7357 4.547-7.68.825-3.3102.862-6.7676.11-10.095-1.118-5.47-3.291-9.4507-6.52-11.942-3.229-2.4913-7.538-3.186-12.929-2.084-3.047.556-5.885 1.9301-8.211 3.975-2.2 1.9923-3.771 4.5836-4.52 7.456-.826 3.2434-.869 6.6367-.125 9.9v-.004zm45.111-7.184c-.298 3.3235.181 6.6708 1.4 9.777 1.128 2.7268 3.088 5.0283 5.6 6.577 2.934 1.7219 6.254 2.6789 9.654 2.783 1.338.1047 2.684.087 4.019-.053 1.087-.1333 2.253-.3417 3.5-.625.729-.158 1.324-.2773 1.785-.358.482-.0823.97-.1301 1.459-.143l1.4-7.8-4.6-.721-2.615 4.982c-.483.4582-1.065.8002-1.7 1-.952.2651-1.945.3486-2.928.246-.907-.0342-1.797-.2563-2.614-.6522-.817-.3959-1.543-.957-2.132-1.6478-1.321-1.6222-2.203-3.5573-2.56-5.619-.5-2.5885-.653-5.2321-.454-7.861.105-2.6492.617-5.2666 1.518-7.76.619-1.8022 1.727-3.3967 3.2-4.605 1.288-.9795 2.892-1.4505 4.506-1.323 1 .0331 1.99.2088 2.94.522.57.1675 1.075.5036 1.45.964l1.232 7.106 5.11.321 1.223-10.379c-.348-.054-1.176-.226-2.485-.516-1.667-.3927-3.173-.711-4.519-.955-1.369-.2472-2.751-.4142-4.139-.5-3.227-.2565-6.467.2962-9.427 1.608-2.814 1.2754-5.197 3.3416-6.858 5.947-1.817 2.9123-2.84 6.249-2.969 9.679l.004.006zm47.645 22.514l-1.133 3.126 15.116 5.479 1.125-3.1-3.741-1.966 1.158-3.194c2.844 1.1232 5.888 1.6498 8.944 1.547 2.365-.0744 4.66-.825 6.612-2.163 1.769-1.2859 3.101-3.0844 3.814-5.152.79-2.0091 1.121-4.1695.968-6.323-.326-2.1839-1.421-4.1797-3.088-5.628-1.872-1.8333-4.877-3.5-9.016-5l1.047-2.89 4.141.724 1.117-3.082-15.116-5.479-1.117 3.082 3.732 2.13-1.047 2.89c-2.902-1.157-6.005-1.725-9.128-1.671-2.309.037-4.554.7646-6.445 2.089-1.724 1.3182-3.015 3.1207-3.709 5.177-.785 2.0189-1.105 4.1884-.939 6.348.321 2.2204 1.411 4.2579 3.079 5.758 1.859 1.8667 4.828 3.5393 8.908 5.018l-1.15 3.172-4.132-.892zm33.818 13.417l-1.894 2.586 22.953 16.807 6.347-6.563-2.619-3.348-6.191 3.392-8.687-6.36 7.59-10.367 4.942 3.619-1.854 3.95 2.818 2.064 7.195-9.826-2.819-2.064-3.089 2.72-4.9-3.59 7.336-10.019 7.8 5.711-1.589 5 3.147 2.3 4.449-7.21-21.37-15.647-1.998 2.729 2.66 2.807-16.856 23.02-3.371-1.711zm30.14 23.58l-2.483 2.028 11.485 14.066 2.484-2.028-3.529-5.3 6.969-5.69c.222.37.477.719.761 1.044l1.332 1.631c1.655 2.137 3.761 3.882 6.168 5.111 2.047 1.025 4.359 1.396 6.624 1.062 2.409-.422 4.658-1.49 6.508-3.09 1.628-1.231 2.916-2.856 3.742-4.723.657-1.823.65-3.819-.019-5.637-1-2.68-2.484-5.155-4.377-7.3l-9.839-12.046-2.819 2.3 1.744 3.179-21.924 17.905-2.827-2.512zm22.376 28.053l-2.906 1.355 5.277 11.767 2.925-1.312-1.076-3.686 6.165-.93 4.924 10.982-4.687 3.99-1.978-2.89-2.925 1.312 6.2 13.819 2.925-1.312-.592-2.775 25.206-23.5-3.456-7.706-34.26 3.249-1.742-2.363zM198.964 68.311c-.796 2.7027-.694 6.507.306 11.413l-.009.003c.993 4.8633 2.386 8.3723 4.179 10.527 1.793 2.1547 3.884 2.988 6.275 2.5.758-.143 1.478-.4417 2.115-.8772.637-.4354 1.177-.9982 1.585-1.6528.985-1.7128 1.514-3.6501 1.536-5.626.098-2.8661-.171-5.733-.8-8.531-.983-4.8153-2.354-8.2343-4.111-10.257-.718-.9392-1.689-1.6539-2.8-2.0599-1.11-.4061-2.313-.4866-3.468-.2321-2.409.4927-4.012 2.0903-4.808 4.793zM92.232 177.13l-11.408-9.967-2.682-2.093 3.318.753 15.028 2.336-4.256 8.971zM331.4 366.7l5.406 14.156 7.963-5.934-12.179-9.108-2.578-2.221 1.388 3.107zm-177.174 11.696l6.174-10.378c.293.1.764.3 1.412.6.55.248 1.088.524 1.61.827 1.81 1.077 2.874 2.253 3.191 3.528.252 1.59-.134 3.215-1.075 4.521-.793 1.564-2.073 2.828-3.647 3.6-.736.251-1.522.321-2.291.206-.77-.115-1.5-.413-2.131-.868-1.673-.995-2.754-1.674-3.243-2.036zm-8.854 14.837l6.89-11.582 3.66 2.178c1.152.629 2.161 1.489 2.965 2.526.611.843.895 1.88.8 2.917-.178 1.317-.647 2.578-1.375 3.691-.881 1.742-2.384 3.09-4.211 3.778-1.604.498-3.475.111-5.614-1.162-1.177-.578-2.234-1.374-3.114-2.346h-.001zM289.526 92.034c-1.625-.7218-3.001-1.9065-3.957-3.406-.726-1.2267-1.074-2.6404-1-4.064.107-1.5168.434-3.01.97-4.433.494-1.4744 1.202-2.8685 2.1-4.138.778-1.0262 1.891-1.7482 3.145-2.041 1.722-.3188 3.498-.1879 5.155.38l-6.413 17.702zm17.658-11.682c-1.01-1.4554-2.406-2.6002-4.031-3.306l-6.408 17.68c1.66.5672 3.442.6815 5.161.331 1.287-.3289 2.421-1.0905 3.212-2.157.921-1.3165 1.649-2.7582 2.162-4.281.53-1.3991.853-2.8684.957-4.361.065-1.3799-.304-2.7455-1.053-3.906zm59.538 57.108c-.715-.833-1.348-1.733-1.891-2.688l12.9-10.531c.217.193.4.343.545.45.655.496 1.246 1.073 1.756 1.717.625.656 1.098 1.441 1.386 2.3.289.858.385 1.77.282 2.67-.267 1.62-1.431 3.271-3.492 4.952-2.684 2.191-4.964 3.3-6.839 3.329-.893.029-1.781-.155-2.589-.538-.808-.382-1.513-.952-2.056-1.662l-.002.001zm32.081 28.888l-14.987 2.211 4.063 9.057 11.531-9.916 2.726-2.034-3.333.682z" clip-rule="evenodd"/>
  <path fill="#1A0801" fill-rule="evenodd" d="M329.993 319.032c.007-1.44-.275-2.867-.83-4.195-.555-1.329-1.371-2.533-2.4-3.54l-77.369-70.034L267.648 222c2.558 1.168 5.332 1.791 8.144 1.828 2.583.006 5.142-.5 7.528-1.49 2.386-.989 4.552-2.443 6.372-4.276l39.176-39.235c.522-.521.816-1.229.817-1.967 0-.738-.293-1.446-.814-1.968-.521-.522-1.229-.816-1.967-.816-.738-.001-1.446.292-1.968.813l-36.929 36.845c-.843 0-2.809-.7-5.477-2.531l38.474-38.533c.522-.521.816-1.229.817-1.967 0-.737-.292-1.445-.813-1.967-.522-.523-1.229-.816-1.967-.817-.738-.001-1.446.292-1.968.813l-39.036 39.1c-1.449-1.264-2.81-2.627-4.072-4.079L313 162.651c.522-.521.816-1.229.817-1.967 0-.738-.293-1.446-.814-1.968-.521-.522-1.229-.816-1.967-.816-.738-.001-1.446.292-1.968.813L270.6 197.246c-1.825-2.812-2.528-4.781-2.528-5.484L305 154.776c.522-.521.816-1.229.817-1.967 0-.738-.293-1.446-.814-1.968-.521-.522-1.229-.816-1.967-.816-.738-.001-1.446.292-1.968.813l-37.21 37.127-1.966 1.968c-1.836 1.822-3.29 3.992-4.279 6.382-.988 2.391-1.491 4.954-1.478 7.541-.131 2.134.106 4.274.7 6.328l-12.089 11.3c.008-.015.012-.032.013-.049 0-.141.141-.141 0-.282v-.14c-.015-.107-.064-.206-.14-.282-.562-.421-47.741-44.439-79.756-63.846-6.459-3.8-10.391-1.969-12.638.282-.678.655-1.214 1.443-1.577 2.313-.362.871-.542 1.806-.529 2.749 0 .941.186 1.873.548 2.742.361.869.891 1.657 1.558 2.321l73.578 73.69-72.595 70.456c-1.018 1.014-1.826 2.22-2.377 3.547-.551 1.327-.835 2.75-.835 4.187 0 1.438.284 2.861.835 4.188.551 1.327 1.359 2.533 2.377 3.547 2.019 1.994 4.746 3.106 7.584 3.093 2.937-.038 5.749-1.194 7.863-3.234l69.506-73.55 73.3 73.55c1.009 1.024 2.211 1.838 3.537 2.393 1.326.555 2.749.841 4.186.841 1.437 0 2.861-.286 4.186-.841 1.326-.555 2.529-1.369 3.537-2.393 1.035-.995 1.846-2.2 2.378-3.534.532-1.334.774-2.766.708-4.2zM244.2 221.716h.3l-.3.281v-.281z" clip-rule="evenodd"/>
</svg>
