<svg xmlns="http://www.w3.org/2000/svg" viewBox="0 0 56.76 56.76">
  <path d="M25.399 25.989c-9.674 0-24.067 1.749-24.067 6.568v.135c0 13.271 10.796 24.067 24.067 24.067s24.068-10.797 24.068-24.067v-.135c0-4.819-14.394-6.568-24.068-6.568zm0 2c1.577 0 3.057.041 4.469.106-.486.231-.931.573-1.306 1.026l1.539 1.277c.683-.824 1.778-.824 2.461 0l1.539-1.277c-.281-.339-.609-.599-.956-.815 9.425.805 14.322 2.972 14.322 4.252 0 1.595-7.579 4.568-22.068 4.568-8.241 0-14.239-.963-17.886-2.086.659-.429 1.491-.316 2.049.358l1.539-1.277c-.728-.878-1.711-1.361-2.77-1.361s-2.042.483-2.77 1.361l.494.41c-1.793-.703-2.724-1.42-2.724-1.973 0-1.595 7.579-4.569 22.068-4.569zm0 26.771c-11.221 0-20.507-8.421-21.884-19.274 4.389 2.621 14.506 3.641 21.884 3.641 7.379 0 17.496-1.02 21.885-3.641C45.906 46.339 36.62 54.76 25.399 54.76z"/>
  <path d="M30.562 35.121l1.539 1.277c.683-.824 1.778-.824 2.461 0l1.539-1.277c-.728-.878-1.711-1.361-2.77-1.361s-2.041.483-2.769 1.361zM36.562 34.121l1.539 1.277c.683-.824 1.778-.824 2.461 0l1.539-1.277c-.728-.878-1.711-1.361-2.77-1.361s-2.041.483-2.769 1.361zM44.562 33.398l1.539-1.277c-.728-.878-1.711-1.361-2.77-1.361s-2.042.483-2.77 1.361l1.539 1.277c.683-.824 1.779-.824 2.462 0zM38.562 32.398l1.539-1.277c-.728-.878-1.711-1.361-2.77-1.361s-2.042.483-2.77 1.361l1.539 1.277c.683-.824 1.779-.824 2.462 0zM32.562 33.398l1.539-1.277c-.728-.878-1.711-1.361-2.77-1.361s-2.042.483-2.77 1.361l1.539 1.277c.683-.824 1.779-.824 2.462 0zM26.562 32.398l1.539-1.277c-.728-.878-1.711-1.361-2.77-1.361s-2.042.483-2.77 1.361l1.539 1.277c.683-.824 1.779-.824 2.462 0zM23.562 35.121l1.539 1.277c.683-.824 1.778-.824 2.461 0l1.539-1.277c-.728-.878-1.711-1.361-2.77-1.361s-2.041.483-2.769 1.361zM17.562 35.121l1.539 1.277c.683-.824 1.778-.824 2.461 0l1.539-1.277c-.728-.878-1.711-1.361-2.77-1.361s-2.041.483-2.769 1.361zM14.101 35.398c.683-.824 1.778-.824 2.461 0l1.539-1.277c-.728-.878-1.711-1.361-2.77-1.361s-2.042.483-2.77 1.361l1.54 1.277zM19.562 32.398l1.539-1.277c-.728-.878-1.711-1.361-2.77-1.361s-2.042.483-2.77 1.361l1.539 1.277c.683-.824 1.779-.824 2.462 0zM11.562 32.398l1.539-1.277c-.728-.878-1.711-1.361-2.77-1.361s-2.042.483-2.77 1.361L9.1 32.398c.683-.824 1.779-.824 2.462 0zM32.064 7.715c-.227-.559-.585-1.073-1.094-1.495-.227-.188-.391-.407-.499-.64L54.48 1.979 54.183 0 30.765 3.513 29.693 2.22c-.549.454-.922 1.015-1.141 1.625l-1.924.288c.095-.132.203-.26.341-.374L25.693 2.22c-.731.606-1.169 1.393-1.302 2.249l-2.033.305c.06-.374.266-.728.611-1.015L21.693 2.22c-.878.728-1.362 1.711-1.362 2.77 0 .03.009.058.01.087l-1.951.292c-.036-.124-.059-.251-.059-.38 0-.452.227-.889.638-1.23L17.693 2.22c-.878.728-1.362 1.711-1.362 2.77 0 .23.033.455.078.677L14.183 6l.148.989-.097.995 3.946.385c.096.198.151.407.151.62 0 .452-.227.889-.638 1.23-.878.728-1.362 1.711-1.362 2.77s.483 2.042 1.362 2.77c.412.342.638.778.638 1.23s-.227.889-.638 1.23c-.878.728-1.362 1.711-1.362 2.77s.483 2.042 1.362 2.77l1.276-1.539c-.412-.342-.638-.778-.638-1.23s.227-.889.638-1.23c.878-.728 1.362-1.711 1.362-2.77s-.483-2.042-1.362-2.77c-.412-.342-.638-.778-.638-1.23s.227-.889.638-1.23c.878-.728 1.362-1.711 1.362-2.77 0-.141-.031-.277-.048-.415l2.02.197c.012.072.027.144.027.218 0 .452-.227.889-.638 1.23-.878.728-1.362 1.711-1.362 2.77s.483 2.042 1.362 2.77c.412.342.638.778.638 1.23s-.227.889-.638 1.23c-.878.728-1.362 1.711-1.362 2.77s.483 2.042 1.362 2.77l1.276-1.539c-.412-.342-.638-.778-.638-1.23s.227-.889.638-1.23c.878-.728 1.362-1.711 1.362-2.77s-.483-2.042-1.362-2.77c-.412-.342-.638-.778-.638-1.23s.227-.889.638-1.23c.878-.728 1.362-1.711 1.362-2.77 0-.007-.002-.013-.002-.02l1.981.193c-.05.389-.258.76-.617 1.057-.878.728-1.362 1.711-1.362 2.77s.483 2.042 1.362 2.77c.412.342.638.778.638 1.23s-.227.889-.638 1.23c-.878.728-1.362 1.711-1.362 2.77s.483 2.042 1.362 2.77l1.276-1.539c-.412-.342-.638-.778-.638-1.23s.227-.889.638-1.23c.878-.728 1.362-1.711 1.362-2.77s-.483-2.042-1.362-2.77c-.412-.342-.638-.778-.638-1.23s.227-.889.638-1.23c.775-.642 1.22-1.487 1.32-2.403l1.917.187c-.106.247-.274.479-.513.677-.878.728-1.362 1.711-1.362 2.77s.483 2.042 1.362 2.77c.412.342.638.778.638 1.23s-.227.889-.638 1.23c-.878.728-1.362 1.711-1.362 2.77s.483 2.042 1.362 2.77l1.276-1.539c-.412-.342-.638-.778-.638-1.23s.227-.889.638-1.23c.878-.728 1.362-1.711 1.362-2.77s-.483-2.042-1.362-2.77c-.412-.342-.638-.778-.638-1.23s.227-.889.638-1.23c.666-.552 1.102-1.25 1.275-2.017l22.989 2.243.194-1.99-23.362-2.285zm-2.672-.261l-1.524-.149c-.225-.398-.517-.77-.899-1.086-.038-.031-.065-.067-.1-.1l1.592-.239c.159.583.48 1.114.931 1.574zm-6.005-.811l1.279-.192c.096.202.219.392.354.577l-1.417-.138c-.065-.087-.142-.166-.216-.247z"/>
</svg>
