<svg xmlns="http://www.w3.org/2000/svg" viewBox="0 0 58.393 58.393">
  <circle cx="36.504" cy="21.827" r="1"/>
  <circle cx="41.722" cy="19.179" r="1"/>
  <circle cx="40.41" cy="21.695" r="1"/>
  <circle cx="14.256" cy="17.06" r="1"/>
  <circle cx="20.088" cy="15.736" r="1"/>
  <circle cx="16.865" cy="14.736" r="1"/>
  <circle cx="12.006" cy="33.124" r="1"/>
  <circle cx="15.256" cy="30.8" r="1"/>
  <circle cx="16.865" cy="32.8" r="1"/>
  <path d="M26.184 11.787c.188-.043.377-.009.53.087.079.049.218.161.259.358.289 1.4 1.701 2.294 3.153 2.001.189-.042.377-.009.53.087.079.049.218.161.259.358.142.689.555 1.276 1.163 1.653.43.267.921.404 1.423.404.188 0 .378-.019.566-.058.541-.112.889-.642.776-1.183-.112-.54-.64-.885-1.182-.776-.19.04-.376.008-.53-.087-.079-.049-.218-.161-.258-.358-.143-.689-.556-1.277-1.164-1.653-.591-.368-1.298-.491-1.989-.347-.37.079-.724-.124-.79-.446-.143-.689-.556-1.277-1.164-1.653-.591-.367-1.3-.491-1.99-.347-.541.112-.889.642-.776 1.183.113.54.638.887 1.184.777z"/>
  <path d="M30.14 25.942c-.552.012-.99.47-.979 1.021.003.116-.064.192-.112.193-1.166.026-2.093 1.028-2.067 2.235.003.116-.064.192-.112.193-.578.013-1.111.261-1.504.697-.376.42-.576.966-.563 1.539.012.544.457.978.999.978h.023c.552-.013.99-.47.977-1.022-.001-.074.038-.19.112-.191 1.166-.026 2.094-1.029 2.068-2.236-.003-.116.064-.191.111-.192 1.166-.026 2.094-1.029 2.068-2.236-.012-.552-.442-.949-1.021-.979z"/>
  <path d="M22.976 22.292c-.152.345-.521.517-.821.385-.644-.283-1.362-.288-2.021-.011-.641.269-1.151.773-1.436 1.421-.222.505.007 1.096.513 1.317.131.058.268.085.402.085.384 0 .751-.223.916-.598.078-.176.212-.312.378-.382.086-.036.258-.083.442-.003 1.31.579 2.861-.055 3.458-1.409.078-.176.212-.312.378-.382.086-.036.258-.083.442-.003.644.283 1.362.288 2.021.011.641-.269 1.151-.773 1.436-1.421.222-.505-.007-1.096-.513-1.317-.506-.224-1.095.006-1.318.513-.078.176-.212.312-.378.382-.085.036-.257.082-.442.003-.646-.283-1.363-.288-2.022-.011-.642.269-1.151.773-1.435 1.42z"/>
  <path d="M57.51 18.848c-.007-.019-.022-.031-.03-.05-.276-1.106-.629-2.144-1.059-3.111-.014-.047-.042-.089-.063-.135-2.29-5.026-6.57-8.22-11.735-10.163-.032-.016-.055-.042-.09-.055-.024-.008-.048-.004-.072-.01-2.205-.815-4.566-1.407-6.995-1.823-.006-.002-.009-.007-.015-.009-.13-.046-.264-.063-.394-.054-4.991-.812-10.241-.896-15.019-.647-.013 0-.023-.007-.036-.007-.021 0-.039.011-.061.012-4.286.227-8.185.715-11.145 1.18-2.562.404-4.486 2.468-4.743 5.036v.003c-.005.052-.02.099-.024.15L4.527 28.361c-1.821 1.161-5.663 4.307-4.204 9.463.515 1.818 1.356 2.887 2.501 3.174.209.053.55.227.5.545-.386 2.448-1.042 6.965-1.091 9.713-.024 1.323.411 2.433 1.258 3.207 1.2 1.098 2.888 1.262 3.782 1.262.314 0 .531-.021.594-.027.353-.023 3.474-.291 4.504-2.447.627-1.312.297-2.912-.972-4.751l16.396-6.647c.003.002.007.002.01.004.195.103.404.184.62.25.034.011.065.028.1.038.25.069.512.115.787.134.228.014.452.014.672.004.049-.002.098-.009.148-.012.187-.013.37-.034.549-.065.045-.008.09-.016.135-.025.211-.041.416-.094.613-.159.013-.004.027-.008.04-.012.731-.248 1.364-.653 1.838-1.207.18-.21.329-.445.465-.691.004-.006.007-.013.01-.02.132-.242.242-.503.331-.78.003-.009.007-.015.01-.024l18.779-7.615c.125-.042 3.097-1.074 4.619-4.198 1.166-2.391 1.162-5.292-.011-8.627zm-2.506 2.045c-.348-.762-.727-1.512-1.135-2.25l1.184-1.013c.284.787.522 1.615.698 2.495.176.879.024 1.76-.376 2.504.013-.547-.092-1.127-.371-1.736zm-.785-5.18l-1.398 1.196c-.747-1.131-1.602-2.214-2.599-3.226l1.218-1.768c1.096 1.104 2.035 2.363 2.779 3.798zM44.111 9.435l.669-1.846c1.893.791 3.633 1.774 5.156 2.982l-1.201 1.744c-1.308-1.08-2.837-2.048-4.624-2.88zM37.2 7.252l.586-1.681c1.769.329 3.49.758 5.123 1.311l-.643 1.775c-1.509-.564-3.195-1.034-5.066-1.405zm-7.197-.838V4.721c1.935.084 3.876.25 5.78.521l-.581 1.668c-1.602-.237-3.328-.406-5.199-.496zM26.78 4.651c.406 0 .814.003 1.223.01v1.687c-1.57-.028-3.239-.001-5 .077V4.742c1.237-.055 2.497-.091 3.777-.091zM15.003 7.087V5.412c1.837-.224 3.859-.423 6-.562v1.681c-1.888.123-3.891.31-6 .556zm-3.895-1.134c.591-.093 1.231-.187 1.895-.28v1.656c-1.484.195-3.04.429-4.635.686.504-1.077 1.507-1.868 2.74-2.062zm-.54 46.432c-.447.941-2.243 1.274-2.875 1.32-.479.055-2.034.031-2.853-.718-.422-.387-.622-.941-.607-1.695.047-2.627.688-7.04 1.067-9.437.202-1.281-.634-2.457-1.988-2.797-.378-.095-.775-.76-1.063-1.779-1.171-4.138 2.22-6.596 3.732-7.461l.459-.263 1.522-19.45c5.287-.874 9.931-1.409 14.01-1.651.011 0 .02.006.031.006.018 0 .033-.009.051-.01 5.398-.316 9.812-.124 13.451.452.019.008.031.023.051.03.109.038.22.056.329.056.032 0 .062-.011.094-.015 2.441.416 4.515 1.012 6.305 1.741.076.056.151.115.245.149.067.024.135.026.203.035 2.203.951 3.947 2.115 5.365 3.414.07.11.162.208.276.287.023.016.048.021.072.035 2.218 2.143 3.61 4.619 4.74 7.09.883 1.929-1.665 3.369-1.956 3.525L32.275 33.13l-.123.487c-.133.53-.137 1.102-.013 1.654.267 1.182.326 2.176.189 2.957l-.023.113c-.177.847-.6 1.343-1.114 1.624-.505.264-1.073.32-1.465.321-.094-.001-.188 0-.279-.007-.176-.012-.335-.046-.482-.097l-.042-.015c-.145-.055-.278-.127-.397-.222l-.07-.056c-.057-.052-.114-.103-.165-.166-.581-.715-.7-2.093-.564-3.069l.24-1.732L11.7 41.686c-1.863.724-2.96 1.707-3.353 3.006-.417 1.381.027 2.976 1.36 4.873.6.853 1.234 2.033.861 2.82zm-.305-7.113c.2-.662.928-1.241 2.185-1.729l13.254-5.511c.052.706.21 1.527.595 2.269L10.42 46.738c-.216-.574-.278-1.068-.157-1.466zm45.474-18.703c-1.142 2.372-3.455 3.199-3.529 3.227L34.389 37.02c-.026-.674-.118-1.398-.297-2.187-.021-.092-.034-.184-.039-.274l20.274-8.429c.77-.32 1.422-.811 1.961-1.396-.101.653-.278 1.269-.551 1.835z"/>
  <path d="M14.046 36.921c4.228 0 7.667-2.738 7.667-6.104 0-2.046-1.002-2.958-1.844-3.363-.936-.45-1.988-.45-2.823-.45-1.573 0-9.667 2.023-9.667 5.813 0 4.104 3.09 4.104 6.667 4.104zm3.008-7.917h.012c.632 0 1.414.002 1.936.253.213.103.711.342.711 1.561 0 2.225-2.595 4.104-5.667 4.104-4.667 0-4.667-.445-4.667-2.104 0-1.78 6.132-3.814 7.675-3.814z"/>
  <path d="M16.365 20.695c4.228 0 7.667-2.738 7.667-6.104 0-2.046-1.002-2.958-1.844-3.363-.932-.448-2.012-.45-2.812-.45h-.011c-1.573 0-9.667 2.023-9.667 5.813 0 4.104 3.09 4.104 6.667 4.104zm3.008-7.917h.012c.632 0 1.414.002 1.936.253.213.103.711.342.711 1.561 0 2.225-2.595 4.104-5.667 4.104-4.667 0-4.667-.445-4.667-2.104 0-1.78 6.132-3.814 7.675-3.814z"/>
  <path d="M32.003 21.551c0 4.103 3.089 4.103 6.667 4.103 4.228 0 7.667-2.737 7.667-6.103 0-2.047-1.003-2.959-1.844-3.363-.933-.449-2.013-.451-2.812-.451h-.011c-1.574-.001-9.667 2.023-9.667 5.814zm9.673-3.815h.012c.632 0 1.415.002 1.938.253.213.103.711.343.711 1.562 0 2.224-2.595 4.103-5.667 4.103-4.667 0-4.667-.445-4.667-2.103 0-1.781 6.132-3.815 7.673-3.815z"/>
</svg>
