<svg xmlns="http://www.w3.org/2000/svg" viewBox="0 0 59.21 59.21">
  <path d="M58.565 28.357c-.447-.478-1.077-.752-1.729-.752h-.194c.879-1.513 1.357-3.231 1.357-5 0-3.989-2.386-7.58-6.008-9.158-.085-5.44-4.531-9.842-9.991-9.842-5.459 0-9.904 4.399-9.992 9.837-.204-.048-.414-.076-.628-.076-.889 0-1.726.434-2.237 1.16l-.249.354c-.205.29-.59.395-.912.245l-.392-.182c-.807-.376-1.748-.332-2.519.112s-1.278 1.239-1.358 2.124l-.039.431c-.014.154-.082.369-.171.599-.229-.109-.393-.333-.417-.6l-.039-.429c-.076-.84-.525-1.536-1.168-1.977l3.147-4.466c.613-.871.851-1.932.667-2.986-.183-1.056-.763-1.975-1.633-2.588-1.804-1.27-4.304-.838-5.574.966l-5.76 8.175c-.192.273-.334.569-.451.873-.093.004-.192-.005-.294-.052l-.392-.182c-.807-.374-1.75-.331-2.519.113-.77.444-1.277 1.238-1.357 2.123l-.039.431c-.032.355-.313.636-.668.668l-.43.039c-.885.08-1.68.588-2.124 1.357-.445.771-.487 1.712-.113 2.521l.181.39c.15.324.047.708-.245.913l-.353.249c-.727.513-1.161 1.35-1.161 2.239 0 .593.208 1.153.552 1.618h-.94c-.652 0-1.282.274-1.729.752-.451.482-.684 1.138-.639 1.797.592 8.747 6.156 13.139 14.329 17.042.912.436 1.665 1.16 2.122 2.042.446.862.375 1.974-.194 2.92-.429.712-.441 1.569-.032 2.293.409.724 1.149 1.155 1.98 1.155H41c.831 0 1.571-.432 1.98-1.155.409-.724.397-1.581-.042-2.311-.559-.929-.629-2.04-.184-2.901.456-.882 1.209-1.607 2.122-2.043 8.171-3.903 13.736-8.294 14.329-17.041.044-.66-.19-1.315-.64-1.797zM56 22.605c0 1.82-.625 3.579-1.768 5H49v-4c0-.553-.447-1-1-1s-1 .447-1 1v4h-3.531c.081-.11.151-.226.214-.346.003-.005.007-.01.01-.015.088-.17.151-.352.202-.537.013-.046.024-.092.034-.14.041-.19.07-.383.07-.581 0-.89-.434-1.726-1.16-2.236l-.23-.163c.08-.005.157-.018.236-.024.12-.01.24-.022.359-.037.197-.024.392-.054.585-.089.114-.021.229-.04.342-.065.208-.045.413-.101.616-.159.091-.026.183-.047.273-.076.285-.091.564-.192.837-.307.076-.032.148-.07.222-.104.198-.089.395-.181.586-.283.107-.057.211-.119.315-.18.153-.089.305-.179.453-.276.11-.072.218-.146.325-.222.135-.096.268-.196.398-.298.107-.084.213-.167.316-.255.123-.105.24-.215.358-.325.101-.094.203-.187.3-.285.111-.113.214-.233.319-.351.199-.223.387-.454.566-.695.063-.085.13-.167.191-.255.109-.157.209-.32.309-.482.05-.082.102-.163.15-.247.101-.175.194-.354.284-.535.035-.072.07-.143.104-.216.093-.199.18-.4.26-.606.017-.044.033-.09.049-.134.181-.487.335-.987.439-1.505C54.355 16.957 56 19.644 56 22.605zm-14-17c4.411 0 8 3.589 8 8 0 .151-.013.299-.022.448 0 0-.003.006-.003.01-.059 1.051-.321 2.044-.745 2.945l-.012.027c-.098.207-.206.407-.321.604-.014.024-.027.048-.041.072-.107.179-.223.353-.344.522-.026.037-.051.074-.077.11-.113.154-.234.302-.358.447-.039.046-.077.093-.117.138-.117.132-.241.257-.367.381-.052.052-.103.104-.157.155-.12.112-.246.217-.373.322-.065.054-.129.109-.196.16-.123.094-.25.182-.378.27-.077.053-.153.107-.233.157-.125.079-.254.15-.383.222-.088.049-.176.1-.266.146-.126.064-.256.121-.385.178-.099.044-.197.09-.298.129-.127.05-.257.093-.387.136-.109.037-.216.075-.327.107-.126.037-.256.065-.385.095-.119.028-.237.058-.358.081-.125.023-.252.038-.378.056-.129.018-.257.037-.387.049-.025.002-.051.002-.077.004v-.001c.002-.013.002-.025.004-.038.033-.181.044-.364.04-.547-.001-.059-.008-.116-.013-.175-.012-.144-.036-.285-.07-.425-.014-.056-.025-.112-.043-.167-.059-.188-.132-.373-.233-.547-.445-.77-1.239-1.277-2.124-1.357l-.431-.039c-.265-.024-.489-.187-.599-.417l2.137-2.136c.391-.391.391-1.023 0-1.414s-1.023-.391-1.414 0l-1.427 1.427c-.211-.267-.459-.507-.761-.682-.202-.117-.417-.202-.637-.263-.074-.021-.149-.023-.224-.037-.15-.029-.298-.056-.45-.059-.019 0-.038-.008-.057-.008-.115 0-.228.022-.342.037-.071.009-.142.009-.212.023-.204.042-.404.104-.597.193l-.39.181c-.1.046-.206.064-.313.06-.006 0-.011-.001-.017-.001-.105-.007-.21-.036-.306-.089-.097-.506-.146-1.006-.146-1.49 0-4.411 3.588-8 8-8zM25.666 17.791l.039-.431c.021-.242.155-.451.366-.572.21-.121.458-.134.678-.03l.394.183c1.199.554 2.625.171 3.386-.908l.249-.354c.281-.399.927-.396 1.206-.001l.249.354c.51.723 1.318 1.124 2.157 1.149h.029c.121.002.243 0 .364-.014.057-.006.113-.019.17-.029.082-.015.163-.026.244-.048.144-.039.286-.088.424-.152l.391-.182c.221-.102.469-.091.678.03.21.122.344.33.365.573l.039.429c.12 1.318 1.163 2.362 2.48 2.48l.43.039c.243.021.452.155.573.366.122.21.133.458.031.677l-.184.396c-.008.018-.011.034-.018.052-.356.816-.282 1.723.14 2.457.006.01.012.021.018.031.054.091.111.178.176.263.035.047.074.09.112.135.049.056.096.114.15.166.102.101.211.196.331.28l.355.251c.198.142.312.362.312.605s-.114.462-.312.602l-.356.25c-.003.002-.005.005-.009.008-.13.093-.249.198-.36.312-.044.045-.082.096-.123.144-.06.071-.119.143-.171.22-.02.029-.046.054-.065.084H27.469c.081-.11.151-.227.215-.347.003-.005.006-.009.009-.014.088-.171.152-.353.203-.539.013-.046.023-.091.033-.137.042-.189.07-.382.071-.579v-.002c0-.128-.028-.25-.045-.375-.013-.092-.011-.187-.034-.277-.073-.298-.212-.571-.378-.827-.188-.289-.415-.554-.704-.758l-.354-.25c-.291-.205-.393-.588-.244-.91l.183-.393c.089-.192.15-.393.192-.597.013-.061.013-.122.021-.183.02-.144.035-.287.032-.431-.002-.075-.014-.149-.022-.224-.014-.129-.031-.257-.063-.383-.021-.082-.049-.16-.077-.24-.024-.066-.036-.135-.064-.2-.017-.039-.047-.068-.066-.105-.025-.051-.038-.106-.066-.156-.053-.091-.125-.166-.188-.25-.052-.07-.098-.143-.156-.208-.121-.135-.259-.25-.403-.357-.043-.032-.075-.077-.12-.106.104-.304.192-.638.222-.967zM20.122 7.282c.635-.902 1.886-1.118 2.787-.483.434.306.724.766.815 1.294.091.529-.026 1.06-.332 1.493l-3.901 5.536s-.001 0-.001.001l-1.859 2.637c-.306.435-.765.725-1.293.816-.527.088-1.059-.026-1.493-.333-.002-.001-.003-.003-.005-.004-.143-.101-.263-.224-.372-.354-.028-.033-.054-.068-.08-.103-.095-.131-.177-.27-.238-.419-.004-.01-.01-.018-.014-.028-.061-.158-.095-.325-.115-.495-.005-.043-.007-.086-.01-.129-.009-.17-.004-.343.032-.516.055-.262.16-.513.318-.737l5.761-8.176zM5.427 26.837l-.354-.249c-.199-.14-.313-.359-.313-.603s.114-.463.313-.604l.352-.248c1.083-.761 1.465-2.186.909-3.39l-.181-.39c-.103-.221-.091-.469.03-.68.122-.21.33-.344.573-.365l.429-.039c1.318-.118 2.361-1.161 2.481-2.479l.039-.431c.021-.242.155-.45.365-.572.209-.121.458-.132.678-.03l.394.183c.286.132.589.209.897.233.003.021.012.042.016.063.003.018.001.036.004.053.02.114.062.219.091.33.034.129.06.26.106.386.055.148.131.285.202.425.048.094.085.191.141.281.098.159.218.303.338.447.051.061.091.128.145.186.184.195.387.375.611.532.197.139.407.253.621.353.068.031.137.056.207.083.153.061.308.113.467.154.08.021.159.041.241.056.169.033.34.052.513.063.065.004.128.014.193.015.017 0 .033.004.05.004.231 0 .463-.02.695-.06 1.055-.184 1.974-.764 2.587-1.634l1.471-2.088c.167.111.296.291.318.537l.039.429c.12 1.318 1.163 2.361 2.48 2.48l.43.039c.094.008.176.047.256.086.039.02.078.038.113.065.054.04.098.092.139.146.026.034.055.065.075.104.048.094.082.193.087.295 0 .004-.001.01-.001.014.004.112-.017.226-.066.332l-.183.393c-.209.451-.285.933-.242 1.4.001.006.003.012.003.019.015.149.04.296.079.441.161.602.527 1.148 1.067 1.528l.243.171.111.078c.2.145.314.364.314.607 0 .122-.028.237-.082.34-.015.03-.047.048-.067.076-.048.068-.094.137-.165.187l-.013.009-.342.24c-.137.097-.263.209-.379.329-.036.037-.065.079-.098.117-.076.088-.149.178-.214.275-.011.016-.026.03-.036.046H6.156c-.191-.3-.438-.563-.729-.768zM44.014 45.39c-1.303.622-2.381 1.662-3.037 2.929-.763 1.474-.668 3.333.257 4.869.068.114.04.214.003.277-.036.063-.106.14-.239.14H18.21c-.132 0-.203-.076-.239-.14-.036-.063-.065-.163.014-.295.915-1.519 1.01-3.378.247-4.853-.655-1.267-1.734-2.307-3.036-2.928-7.755-3.702-12.667-7.565-13.195-15.37-.01-.149.062-.25.105-.297.05-.054.137-.117.268-.117h54.463c.13 0 .217.063.268.117.043.047.115.147.104.297-.529 7.805-5.441 11.668-13.195 15.371z"/>
  <path d="M37 46.605h-8.707c-.552 0-1 .447-1 1s.448 1 1 1H37c.552 0 1-.447 1-1s-.448-1-1-1z"/>
  <path d="M22 48.605h3.386c.552 0 1-.447 1-1s-.448-1-1-1H22c-.552 0-1 .447-1 1s.447 1 1 1z"/>
  <path d="M37 49.605H22c-.552 0-1 .447-1 1s.448 1 1 1h15c.552 0 1-.447 1-1s-.448-1-1-1z"/>
  <path d="M39.879 12.898c.195.195.451.293.707.293s.512-.098.707-.293c.391-.391.391-1.023 0-1.414l-2.829-2.828c-.391-.391-1.023-.391-1.414 0s-.391 1.023 0 1.414l2.829 2.828z"/>
  <path d="M45.535 18.554c.195.195.451.293.707.293s.512-.098.707-.293c.391-.391.39-1.023 0-1.414l-2.829-2.828c-.391-.391-1.023-.391-1.414 0s-.391 1.023 0 1.414l2.829 2.828z"/>
  <path d="M43.414 13.191c.256 0 .512-.098.707-.293l2.829-2.828c.39-.391.391-1.023 0-1.414s-1.023-.391-1.414 0l-2.829 2.828c-.391.391-.391 1.023 0 1.414.195.195.451.293.707.293z"/>
  <path d="M49 21.605c0 .553.447 1 1 1h4c.553 0 1-.447 1-1s-.447-1-1-1h-4c-.553 0-1 .447-1 1z"/>
  <path d="M30.5 22.105c.256 0 .512-.098.707-.293l1.5-1.5c.391-.391.391-1.023 0-1.414s-1.023-.391-1.414 0l-1.5 1.5c-.391.391-.391 1.023 0 1.414.195.195.451.293.707.293z"/>
  <path d="M35.293 24.312c.195.195.451.293.707.293s.512-.098.707-.293c.391-.391.391-1.023 0-1.414l-1-1c-.391-.391-1.023-.391-1.414 0s-.391 1.023 0 1.414l1 1z"/>
  <path d="M31.293 23.898l-1 1c-.391.391-.391 1.023 0 1.414.195.195.451.293.707.293s.512-.098.707-.293l1-1c.391-.391.391-1.023 0-1.414s-1.024-.391-1.414 0z"/>
</svg>
