<svg xmlns="http://www.w3.org/2000/svg" width="48" height="48">
  <path d="M19 18c0-.5523.4477-1 1-1h14c.5523 0 1 .4477 1 1s-.4477 1-1 1H20c-.5523 0-1-.4477-1-1zM19 24c0-.5523.4477-1 1-1h14c.5523 0 1 .4477 1 1s-.4477 1-1 1H20c-.5523 0-1-.4477-1-1z"/>
  <path fill-rule="evenodd" d="M2.88055 5.83611c-.2137.49114-.00683 1.0647.4793 1.28956.85225.39421 1.7249.75584 2.59539 1.11656.57264.2373 1.14435.47421 1.70868.71975L13.1498 33.4375c.2047.9134 1.0156 1.5626 1.9516 1.5626L40 35c.5523 0 1-.4477 1-1s-.4477-1-1-1l-24.9495.0001L14.3803 30l25.5948.0001c.9408 0 1.7545-.6558 1.9543-1.5752l3.0435-14c.271-1.2466-.6786-2.4248-1.9543-2.4248L10.3262 12l-.78051-3.46449c-.13992-.62102-.56711-1.13833-1.15045-1.39319l-.37219-.16261c-1.27119-.55537-2.54237-1.11075-3.81372-1.66576-.51111-.22313-1.10628.01078-1.32878.52216zM40.0218 28.0001L13.9311 28l-3.1543-14 32.2885.0001-3.0435 14zM17 40.5c0-1.933 1.567-3.5 3.5-3.5s3.5 1.567 3.5 3.5-1.567 3.5-3.5 3.5-3.5-1.567-3.5-3.5zm5 0c0 .8284-.6716 1.5-1.5 1.5s-1.5-.6716-1.5-1.5.6716-1.5 1.5-1.5 1.5.6716 1.5 1.5zM33.5 37c-1.933 0-3.5 1.567-3.5 3.5s1.567 3.5 3.5 3.5 3.5-1.567 3.5-3.5-1.567-3.5-3.5-3.5zm0 5c.8284 0 1.5-.6716 1.5-1.5s-.6716-1.5-1.5-1.5-1.5.6716-1.5 1.5.6716 1.5 1.5 1.5z" clip-rule="evenodd"/>
</svg>
