<svg xmlns="http://www.w3.org/2000/svg" viewBox="0 0 50 50">
  <path d="M13.5 27c3.23 0 6.5-1.202 6.5-3.5S16.73 20 13.5 20 7 21.202 7 23.5s3.27 3.5 6.5 3.5zm0-5c2.923 0 4.5 1.064 4.5 1.5S16.423 25 13.5 25 9 23.936 9 23.5s1.577-1.5 4.5-1.5zM6 37c-.552 0-1 .447-1 1v6c0 .553.448 1 1 1s1-.447 1-1v-6c0-.553-.448-1-1-1zM6 31c-.552 0-1 .447-1 1v2.997c0 .553.448 1 1 1s1-.447 1-1V32c0-.553-.448-1-1-1zM31 37c-.552 0-1 .447-1 1v6c0 .553.448 1 1 1s1-.447 1-1v-6c0-.553-.448-1-1-1zM31 31c-.552 0-1 .447-1 1v2.997c0 .553.448 1 1 1s1-.447 1-1V32c0-.553-.448-1-1-1zM25.5 11c3.23 0 6.5-1.202 6.5-3.5S28.73 4 25.5 4 19 5.202 19 7.5s3.27 3.5 6.5 3.5zm0-5C28.423 6 30 7.064 30 7.5S28.423 9 25.5 9 21 7.936 21 7.5 22.577 6 25.5 6zM36.5 27c3.23 0 6.5-1.202 6.5-3.5S39.73 20 36.5 20 30 21.202 30 23.5s3.27 3.5 6.5 3.5zm0-5c2.923 0 4.5 1.064 4.5 1.5S39.423 25 36.5 25 32 23.936 32 23.5s1.577-1.5 4.5-1.5z"/>
  <path d="M49.986 25.913c.03-.538-.034-1.083-.206-1.607C48.332 19.868 44.493 17 40 17h-1v-6.801l-.014-.286c.03-.538-.034-1.083-.206-1.607C37.574 4.609 35.979 1 31 1H20c-4.979 0-6.574 3.609-7.781 7.306-.117.357-.182.724-.204 1.092L12 9.401V17H8c-4.979 0-6.574 3.609-7.781 7.306-.117.357-.182.724-.204 1.092L0 25.401v17.355C0 46.199 2.801 49 6.244 49h14.513c1.644 0 3.137-.644 4.253-1.686C26.156 48.38 27.665 49 29.244 49h14.513C47.199 49 50 46.199 50 42.756V26.199l-.014-.286zM40 19c3.611 0 6.705 2.326 7.879 5.927.113.345.139.698.096 1.041l-.006.039c-.011.078-.034.155-.053.232-.016.066-.033.132-.055.196-.028.083-.061.165-.099.245-.043.091-.094.179-.149.266-.037.059-.074.117-.116.173-.086.112-.18.216-.282.307-.03.028-.063.052-.095.078-.101.082-.208.155-.32.217-.03.017-.06.034-.091.049-.124.061-.255.109-.389.145-.027.007-.052.018-.079.025-.162.038-.331.06-.504.06H27.263c-.088 0-.176-.017-.263-.028v-1.773l-.014-.286c.012-.219.008-.439-.012-.658-.004-.041-.012-.082-.017-.123-.034-.278-.088-.555-.176-.826-.214-.657-.443-1.311-.699-1.942.025-.068.041-.131.063-.198.03-.091.059-.18.085-.269.042-.143.078-.281.11-.417.018-.076.037-.152.052-.226.031-.148.056-.288.078-.425.008-.052.019-.105.027-.155.027-.178.049-.346.069-.5C26.717 19 26.717 19 28 19h12zM14.121 8.927C15.403 4.996 16.665 3 20 3h11c3.335 0 4.597 1.996 5.879 5.927.113.345.139.698.096 1.042l-.006.039c-.011.077-.033.153-.052.23-.017.067-.033.134-.056.199-.028.082-.061.163-.098.243-.044.092-.094.181-.15.268-.037.059-.073.117-.115.172-.086.112-.18.216-.282.307-.03.028-.063.052-.095.078-.101.082-.208.155-.32.217-.03.017-.06.034-.091.049-.124.061-.255.109-.389.145-.027.007-.052.018-.079.025-.163.037-.332.059-.505.059H16.263c-.173 0-.342-.022-.506-.06-.028-.006-.052-.017-.079-.025-.134-.037-.264-.084-.389-.145-.031-.015-.061-.032-.091-.049-.112-.062-.219-.135-.32-.217-.032-.026-.065-.051-.095-.078-.102-.092-.195-.196-.282-.307-.042-.055-.078-.113-.115-.172-.056-.087-.107-.176-.15-.268-.037-.08-.07-.161-.098-.243-.023-.066-.039-.132-.056-.199-.019-.076-.041-.153-.052-.23l-.006-.039c-.042-.343-.016-.697.097-1.041zM14 13.347c.052.033.11.058.164.089.086.05.173.098.262.142.071.034.143.065.215.095.1.042.202.079.305.113.069.023.138.045.209.064.118.032.239.057.36.078.061.011.12.024.182.033.186.024.374.04.565.04h18.474c.191 0 .379-.016.565-.04.062-.008.121-.022.182-.033.122-.021.242-.046.36-.078.071-.019.14-.041.209-.064.104-.034.205-.072.305-.113.073-.03.145-.061.215-.095.089-.043.176-.092.262-.142.054-.031.112-.056.164-.089V17h-9c-.343 0-.647.021-.923.058-.093.013-.164.037-.25.053-.169.033-.34.064-.483.111-.086.028-.154.067-.231.101-.117.05-.237.098-.336.159-.07.043-.125.095-.187.143-.083.064-.168.128-.237.201-.053.056-.096.119-.141.179-.058.077-.117.153-.165.237-.038.068-.07.14-.102.211-.039.087-.079.174-.11.267-.026.077-.049.158-.07.238-.026.096-.052.192-.072.292-.018.086-.034.174-.048.263-.008.051-.02.098-.028.15-.14-.186-.287-.364-.442-.535-.004-.004-.007-.008-.011-.011-.155-.171-.319-.333-.491-.487-.006-.006-.013-.011-.02-.017-.173-.153-.355-.297-.546-.432-.011-.008-.022-.015-.034-.023-.189-.131-.388-.252-.596-.363-.02-.011-.041-.022-.061-.032-.202-.104-.413-.199-.634-.283-.035-.013-.069-.027-.105-.041-.21-.076-.431-.142-.66-.199-.053-.013-.104-.029-.158-.042-.223-.05-.458-.088-.699-.119-.066-.009-.128-.021-.195-.029-.306-.03-.625-.05-.963-.05h-5v-3.653zM2.121 24.927C3.403 20.996 4.665 19 8 19h11c.38 0 .726.033 1.055.085.084.013.164.032.245.049.248.051.483.117.704.199.073.027.149.052.22.083.236.102.455.226.664.367.039.027.082.045.12.073.229.166.439.362.639.576.093.101.18.22.27.332.103.129.205.26.302.403.097.144.19.3.282.46.083.144.164.292.243.447.088.172.175.349.26.538.088.196.174.402.259.615.061.152.123.297.184.461.146.392.29.799.434 1.239.067.204.101.412.111.62.002.037-.004.074-.004.111 0 .167-.015.333-.05.496-.006.028-.012.056-.019.083-.002.01-.006.019-.008.029-.048.178-.114.352-.204.517l-.03.054c-.104.18-.229.35-.381.502l-.138.138c-.011.01-.023.019-.034.028-.101.082-.208.155-.32.217-.03.017-.06.034-.091.049-.124.061-.255.109-.389.145-.027.007-.052.018-.079.025-.166.037-.335.059-.508.059H4.263c-.173 0-.342-.022-.506-.06-.028-.006-.052-.017-.079-.025-.134-.037-.264-.084-.389-.145-.031-.015-.061-.032-.091-.049-.112-.062-.219-.135-.32-.217-.032-.026-.065-.051-.095-.078-.102-.092-.195-.196-.282-.307-.042-.055-.078-.113-.115-.172-.056-.087-.107-.176-.15-.268-.037-.08-.07-.161-.098-.243-.023-.066-.039-.132-.056-.199-.019-.076-.041-.153-.052-.23l-.006-.039c-.042-.343-.016-.697.097-1.041zM20.756 47H6.244C3.904 47 2 45.097 2 42.757v-13.41c.052.033.11.058.164.089.086.05.173.098.262.142.071.034.143.065.215.095.1.042.202.079.305.113.069.023.138.045.209.064.118.032.239.057.36.078.061.011.12.024.182.033.187.023.375.039.566.039h18.474c.191 0 .379-.016.565-.04.062-.008.121-.022.182-.033.122-.021.242-.046.36-.078.071-.019.14-.041.209-.064.104-.034.205-.072.305-.113.073-.03.145-.061.215-.095.089-.043.176-.092.262-.142.054-.031.112-.056.164-.089v13.413c0 .258-.032.507-.076.752-.019.102-.047.202-.073.302-.034.132-.074.26-.12.387-.048.128-.098.255-.158.379-.036.075-.078.146-.119.218-.082.146-.164.292-.264.431l-.01.014C23.407 46.302 22.165 47 20.756 47zM48 42.756C48 45.096 46.096 47 43.756 47H29.244c-1.146 0-2.21-.453-3.003-1.262.235-.431.415-.896.544-1.38.012-.044.023-.089.034-.133.046-.188.082-.38.11-.574.008-.056.019-.111.026-.167.027-.24.045-.481.045-.727V29.991c.087.006.175.009.263.009h18.474c.191 0 .379-.016.565-.04.062-.008.121-.022.182-.033.122-.021.242-.046.36-.078.071-.019.14-.041.209-.064.104-.034.205-.072.305-.113.073-.03.145-.061.215-.095.089-.043.176-.092.262-.142.054-.031.112-.056.164-.089v13.41z"/>
</svg>
